<svg width="375" height="412" viewBox="0 0 375 412" fill="none" xmlns="http://www.w3.org/2000/svg">
<path fill-rule="evenodd" clip-rule="evenodd" d="M375 0V253.312L317.542 293.999L346.829 278.948L246.458 346.319L261.93 329.782L165 388L243.735 314.025L94 398L123 362L43 412L102 346L0 398V269.625L29.6932 241.702L0 255.188V243.945L81.2625 178.958L9.66751 226.5L85.2375 169.537L41.1675 180.375L149.122 102.675L43.875 136.5L132.172 75.855L113.543 78.1875L187.643 35.9625L170.393 51.2243L268.853 2.20425L243.667 29.0618L289.793 0H375Z" fill="#0B2133"/>
<path fill-rule="evenodd" clip-rule="evenodd" d="M328.72 328.59C318.492 331.827 320.217 337.721 306.788 336.047C306.788 336.047 294.441 325.41 296.01 319.692L285.323 309.436C276.05 300.531 269.35 297.668 265.993 296.078C265.201 295.703 263.936 294.721 262.424 293.378C257.992 289.427 251.504 282.373 249.108 278.465C248.861 278.055 248.655 277.681 248.5 277.348C246.38 272.754 241.779 267.631 241.779 267.631L218.908 259.75C218.9 259.75 218.737 259.693 218.447 259.609C218.25 259.545 217.989 259.474 217.685 259.389C217.479 259.333 217.261 259.269 217.028 259.213C216.526 259.078 215.967 258.937 215.401 258.816C213.917 258.499 212.39 258.294 211.748 258.619C211.457 258.767 211.125 258.782 210.765 258.712C209.394 258.456 207.634 256.972 206.326 256.972C205.612 256.972 200.743 255.686 194.833 254.526C193.039 254.166 191.151 253.827 189.251 253.53C188.261 253.382 187.265 253.24 186.282 253.12C185.088 252.972 183.907 252.851 182.763 252.773C182.31 253.579 181.858 254.372 181.384 255.149C171.836 271.129 159.446 281.589 159.446 281.589L156.195 279.136C155.855 279.434 155.53 279.695 155.233 279.929V279.936C154.915 280.175 154.626 280.387 154.363 280.557C154.244 280.635 154.13 280.706 154.024 280.762C152.688 281.519 151.381 282.254 150.13 282.974C146.314 285.158 143.02 287.173 141.069 289.081C140.143 289.979 138.68 290.827 137.04 291.548H137.033C134.079 292.848 130.552 293.724 128.58 293.724C125.52 293.724 118.218 281.943 113.738 280.296C109.264 278.642 101.256 273.461 101.256 273.461H97.9554L92.0679 268.125V265.92C92.0679 265.92 82.4136 256.047 74.7238 248.378C74.5045 248.159 74.2861 247.939 74.0733 247.728L66.2633 241.656H63.3235C63.3235 241.656 63.0051 241.486 62.4893 241.232C61.1391 240.582 58.4033 239.352 56.2551 239.063C53.2799 238.666 40.7061 247.078 36.4654 248.25C32.2246 249.431 41.1792 230.822 44.0069 227.287C45.0105 226.036 46.6645 224.454 48.4032 222.778C51.5695 219.732 55.0114 216.375 55.3153 214.092C55.782 210.558 65.4435 209.144 67.9173 212.325C70.3911 215.506 76.0449 226.63 78.6388 229.429C79.3385 230.185 78.8089 230.786 77.6844 231.267L78.4768 231.818L79.091 232.242L80.2365 233.034L86.7882 237.585C103.284 247.89 115.575 250.858 119.632 254.145C124.58 258.145 128.347 264.04 130.467 264.506C130.934 264.613 131.719 264.245 132.673 263.602C133.125 263.298 133.62 262.93 134.129 262.52L132.249 261.099C132.242 261.093 132.234 261.093 132.234 261.093C132.234 261.093 132.242 261.093 132.249 261.085C132.418 260.98 133.817 260.047 135.599 258.413C137.415 256.738 139.62 254.35 141.31 251.375C142.674 248.965 143.698 246.172 143.896 243.07C143.939 242.434 144.023 241.762 144.158 241.063C144.582 238.78 145.458 236.179 146.582 233.487C145.366 230.044 148.49 226.107 148.49 226.107C148.49 226.107 147.862 225.754 147.791 224.305C147.748 223.457 147.904 222.22 148.49 220.453C149.19 218.346 151.374 215.584 153.601 213.159C149.283 210.17 147.226 208.268 146.448 207.032C144.391 203.752 151.261 205.074 148.979 203.123C145.197 199.879 144.928 196.642 146.01 192.324C147.091 188.005 136.828 183.143 133.323 163.713C131.52 153.741 132.708 146.263 134.284 141.344C130.425 138.842 126.305 135.237 122.545 131.555C120.042 130.728 117.837 129.251 115.986 127.576C111.243 127.229 104.882 123.293 98.4786 118.161C96.0966 116.253 93.701 114.175 91.3892 112.062L91.3682 112.041C85.5589 106.733 80.2365 101.17 76.7026 97.3399C74.519 95.0644 73.1334 93.4386 72.582 92.7817C72.4055 92.5624 72.3128 92.4488 72.3128 92.4488C72.3128 92.4488 72.2499 92.1167 72.2008 91.6008C69.232 90.4207 66.0585 89.0706 65.3581 88.4628C61.9951 85.5158 58.729 85.1056 58.729 85.1056C58.729 85.1056 58.2276 83.1339 61.1181 83.9537C62.4256 84.3285 65.3306 84.1584 66.8219 84.0383C64.8567 82.0312 60.3193 80.8294 60.3193 80.8294H56.609C54.1634 84.4841 52.8979 82.6318 52.8979 82.6318L55.5482 79.098C55.5482 79.098 58.1139 78.4338 60.9553 77.9179C60.171 77.7478 59.3158 77.7406 58.4033 78.0098C53.2799 79.5365 54.4882 77.3174 54.4882 77.3174L59.4359 75.7408L66.9138 77.3521C67.2322 77.3811 67.5143 77.4303 67.74 77.5076C70.3839 78.3919 76.7309 84.3495 77.5724 84.3495H77.5797L79.4876 86.3638L80.4202 87.3464C80.4275 87.3464 82.6321 87.4738 84.9648 88.8231H84.9713C85.9055 89.3672 86.8591 90.0959 87.6998 91.0994C88.1311 91.608 88.3995 91.8765 88.6042 92.0248C89.8206 92.8945 88.9936 89.4172 106.932 103.623C110.939 105.347 115.314 106.832 119.788 108.111C125.004 109.603 130.369 110.818 135.45 111.793C141.621 108.734 151.409 112.154 151.409 112.154C151.409 112.154 151.409 111.341 157.615 112.154C158.66 112.288 159.975 112.861 161.445 113.73C161.989 114.048 162.563 114.416 163.149 114.811L166.132 111.751L166.428 111.447L167.842 109.998C166.64 108.938 165.772 107.496 165.46 105.92C165.637 106.789 166.28 107.553 167.114 107.864C166.252 106.839 165.871 105.426 166.096 104.104C166.619 104.591 167.15 105.072 167.672 105.553C167.206 104.344 167.305 102.931 167.934 101.8C167.7 101.44 167.475 101.079 167.242 100.718C167.616 100.266 168.111 99.9129 168.655 99.7009C167.92 99.1987 167.192 98.7038 166.464 98.2089C166.986 97.8066 167.63 97.5519 168.287 97.4745C168.125 97.0433 167.736 96.704 167.284 96.5976C167.651 96.0398 168.259 95.644 168.917 95.5303C168.182 94.7315 167.892 93.5515 168.167 92.5052C168.818 92.456 169.143 91.4807 168.655 91.0567C169.369 91.1059 169.955 90.4844 170.097 89.8129C170.182 89.4309 170.125 89.0351 169.878 88.724C170.514 88.6611 171.143 88.5902 171.779 88.5265C171.412 87.7776 171.037 87.028 170.669 86.2792C171.595 85.989 172.557 85.8197 173.532 85.777C173.659 85.2047 173.341 84.5615 172.811 84.314C174.415 83.3314 176.295 82.83 178.175 82.8728C178.232 82.1868 178.281 81.4944 178.338 80.8012L183.271 82.2924C184.048 82.5334 185.335 82.3069 185.081 81.5299C185.646 81.5508 186.19 81.8547 186.508 82.3214C186.897 82.1796 187.194 81.791 187.222 81.3743C187.838 81.9466 188.367 82.6181 188.791 83.3459C189.589 83.254 190.417 83.749 190.706 84.4978C191.144 83.8973 191.314 83.1057 191.144 82.3851C191.929 83.2468 192.608 84.2084 193.158 85.2402C193.611 84.8871 194.056 84.5333 194.509 84.1802C194.792 84.6679 195.067 85.162 195.35 85.6496C195.937 84.717 196.446 83.7344 196.855 82.7099C197.365 83.9392 197.93 85.1555 198.545 86.3356C198.799 86.8233 199.061 87.3037 199.33 87.7776C199.541 87.5302 199.746 87.2755 199.958 87.028C200.205 87.8131 200.461 88.6039 200.707 89.3954C201.174 89.4454 201.647 89.389 202.093 89.2471C202.079 89.8484 202.065 90.4489 202.057 91.0567C202.333 91.0849 202.616 91.1131 202.898 91.1486C202.926 91.7846 202.785 92.4278 202.481 92.9864C202.941 93.8062 202.891 94.8806 202.361 95.6577C202.849 95.2547 203.45 94.9798 204.079 94.8734C204.319 96.2937 203.577 97.672 202.856 98.9158L202.404 99.7073C202.453 99.7218 202.495 99.7428 202.552 99.7428C202.269 100.153 201.98 100.556 201.697 100.966C202.086 101.206 202.474 101.44 202.863 101.68C202.029 102.231 201.089 103.306 201.74 104.068C201.351 104.683 200.934 105.27 200.488 105.842C200.481 105.963 200.481 106.09 200.467 106.21C200.291 108.903 199.414 111.829 198.241 114.656V118.896L196.432 118.551C194.572 122.184 192.515 125.321 191.271 127.109V127.117C190.579 128.113 190.149 128.686 190.149 128.686C187.435 128.509 185.081 127.18 183.214 126.516C182.296 126.184 181.497 126.021 180.833 126.226C180.515 126.325 180.224 126.516 179.97 126.813C179.899 127.095 179.829 127.378 179.766 127.661V127.668C179.652 128.156 179.553 128.651 179.462 129.131L179.469 129.138C179.92 129.59 180.366 130.049 180.805 130.517C180.847 130.558 180.882 130.594 180.91 130.629C183.441 133.315 185.717 136.163 187.293 139.012C188.063 140.396 188.904 142.065 189.802 143.924C195.809 156.476 203.944 177.792 205.428 181.701C209.231 184.415 215.861 189.334 215.253 190.232C214.398 191.482 222.738 195.292 222.13 196.508C221.551 197.667 227.919 203.632 235.567 208.558C235.92 208.784 236.28 209.011 236.64 209.236C237.262 209.392 237.948 209.561 238.668 209.746C242.316 210.678 246.797 211.851 248.316 212.438C248.5 212.502 248.634 212.565 248.726 212.615C250.168 213.413 253.27 218.439 253.27 218.439L253.13 223.93C253.13 223.93 252.196 223.535 251.236 222.729L250.875 226.065C250.875 226.065 249.475 226.235 249.609 225.012L249.066 223.591L246.153 225.507L239.906 226.623C239.906 226.623 238.944 225.507 241.347 224.383L238.308 223.104C238.471 220.976 241.807 222.821 240.068 221.662C239.694 221.414 238.252 220.933 236.506 220.163C234.753 219.393 232.696 218.325 231.099 216.905C231.099 216.905 230.908 216.813 230.548 216.636C230.315 216.517 230.003 216.368 229.629 216.177C229.438 216.085 229.226 215.979 228.999 215.866C219.911 213.131 214.376 208.473 214.376 208.473C212.525 208.261 210.687 207.802 208.892 207.166L208.87 207.159C203.055 205.102 197.704 201.186 193.858 197.851C193.803 198.946 193.922 200.084 194.311 201.229C194.975 203.201 197.491 205.441 199.767 207.512C202.764 210.254 205.33 212.721 202.673 213.972C206.453 215.986 214.024 220.171 221.53 225.217C228.534 229.931 235.481 235.387 239.241 240.54C239.517 240.914 239.771 241.289 240.011 241.656C240.011 241.656 246.026 243.424 248.323 245.013C248.995 245.473 249.85 246.787 250.762 248.435C251.907 250.505 253.144 253.1 254.225 255.177L255.723 256.754L263.186 264.592C263.186 264.598 263.194 264.598 263.194 264.598L265.173 266.683L266.551 268.125L269.703 269.75L275.04 275.165L282.249 282.473L284.369 285.299L304.258 307.443H307.163C307.163 307.443 307.495 307.846 308.06 308.44C309.439 309.902 312.188 312.539 314.585 313.041C317.942 313.748 321.829 315.691 321.829 315.691C321.829 315.691 333.632 314.977 340.022 315.098C342.05 315.133 343.527 315.26 343.916 315.515C345.506 316.575 334.261 326.836 328.72 328.59Z" fill="#B23D3D"/>
<path fill-rule="evenodd" clip-rule="evenodd" d="M253.267 219.013L253.148 223.883L253.126 224.626C253.126 224.626 252.195 224.222 251.235 223.398L250.875 226.809C250.875 226.809 249.477 226.982 249.611 225.732L249.068 224.28L247.847 225.096V225.104L246.16 226.238L239.921 227.379C239.921 227.379 238.961 226.238 241.36 225.089L238.326 223.781C238.36 223.319 238.537 223.045 238.777 222.886C238.862 222.821 238.954 222.777 239.052 222.748C239.066 222.741 239.073 222.734 239.088 222.734C239.236 222.69 239.391 222.669 239.547 222.662C240.365 222.633 241.113 223.008 240.083 222.307C239.709 222.054 238.269 221.563 236.526 220.776C234.775 219.989 232.722 218.897 231.126 217.446C231.126 217.446 230.936 217.351 230.576 217.171C230.343 217.048 230.032 216.896 229.659 216.701C232.227 214.967 235.728 212.366 238.685 210.127C242.327 211.081 246.803 212.28 248.32 212.879C248.433 212.922 248.532 212.959 248.609 212.995C248.658 213.024 248.693 213.038 248.729 213.06C248.814 213.104 248.899 213.168 248.99 213.24C248.99 213.24 248.997 213.248 249.019 213.263C250.274 214.281 252.349 217.532 253.034 218.637C253.183 218.875 253.267 219.013 253.267 219.013Z" fill="#E8B485"/>
<path fill-rule="evenodd" clip-rule="evenodd" d="M275.059 275.51L262.509 293.664C257.637 289.317 250.268 281.188 248.658 277.686C246.549 273.108 241.972 268 241.972 268L219.22 260.146C219.213 260.146 219.05 260.09 218.763 260.005L226.391 248.699L239.448 240.999C239.722 241.372 239.975 241.746 240.214 242.112C240.214 242.112 246.197 243.873 248.482 245.459C249.15 245.916 250.001 247.226 250.908 248.868C252.048 250.931 253.278 253.518 254.353 255.588L255.844 257.159L266.615 268.494L269.751 270.113L275.059 275.51Z" fill="#E8B485"/>
<path fill-rule="evenodd" clip-rule="evenodd" d="M154.294 280.44C154.175 280.518 154.061 280.589 153.955 280.646C152.62 281.405 151.313 282.144 150.063 282.867C146.25 285.061 142.959 287.084 141.008 289C139.568 290.413 136.806 291.697 134.122 292.556C131.983 293.244 129.884 293.664 128.529 293.664C125.47 293.664 118.174 281.832 113.697 280.178C109.225 278.517 101.223 273.314 101.223 273.314H97.9249L92.0415 267.955V265.741C92.0415 265.741 82.3931 255.825 74.7085 248.123C74.4902 247.903 74.2711 247.683 74.0593 247.47L70.457 244.652L66.2547 241.373H63.4926L79.0736 231.919L80.2182 232.714L86.7654 237.284C99.4151 245.227 109.586 248.826 115.469 251.565C117.256 252.396 118.64 253.149 119.587 253.915C120.081 254.313 120.554 254.731 121.021 255.158L121.028 255.172C121.352 255.463 121.671 255.768 121.982 256.073C125.752 259.771 128.656 263.93 130.414 264.321C130.881 264.428 131.665 264.058 132.618 263.412C133.069 263.107 133.565 262.738 134.072 262.326L132.194 260.899C132.187 260.893 132.18 260.893 132.18 260.893C132.18 260.893 132.187 260.893 132.194 260.885C132.363 260.779 133.762 259.843 135.542 258.202L154.294 280.44Z" fill="#E8B485"/>
<path fill-rule="evenodd" clip-rule="evenodd" d="M78.9288 86.4961L72.0906 92.993C71.915 92.771 71.824 92.6567 71.824 92.6567C71.824 92.6567 71.7609 92.3205 71.7123 91.7982C68.7722 90.6035 65.6293 89.2365 64.9364 88.6212C61.6051 85.6375 58.3705 85.2221 58.3705 85.2221C58.3705 85.2221 57.8739 83.226 60.7366 84.0559C62.0314 84.4354 64.9092 84.2632 66.3853 84.1416C64.4398 82.1096 59.9463 80.8928 59.9463 80.8928H56.271C53.849 84.5921 52.5964 82.7175 52.5964 82.7175L55.1015 79.2973L55.2212 79.1398C55.2212 79.1398 57.7614 78.4673 60.5761 77.9442C59.7986 77.7728 58.9524 77.7655 58.0487 78.0381C52.974 79.5837 54.1707 77.3362 54.1707 77.3362L59.0706 75.7408L66.4763 77.3721C66.7916 77.4007 67.071 77.4513 67.2953 77.5296C67.5548 77.6227 67.8557 77.759 68.1846 77.9442C71.1175 79.569 76.2833 84.4566 77.032 84.4566H77.0392L78.9288 86.4961Z" fill="#E8B485"/>
<path fill-rule="evenodd" clip-rule="evenodd" d="M201.783 101.445C202.175 101.687 202.567 101.921 202.96 102.162C202.775 102.29 202.575 102.44 202.396 102.603C201.775 103.185 201.319 103.965 201.826 104.562C201.433 105.18 201.012 105.769 200.562 106.344C200.554 106.465 200.554 106.593 200.54 106.714C200.362 109.419 199.477 112.358 198.292 115.198V119.458L196.466 119.11C194.588 122.76 192.51 125.912 191.255 127.709V127.715C190.555 128.717 190.121 129.292 190.121 129.292C187.811 132.077 185.003 127.779 183.118 127.112C182.191 126.778 181.384 126.615 180.713 126.82C180.393 126.92 180.099 127.112 179.842 127.41C179.771 127.694 179.7 127.978 179.636 128.263L165.868 112.28L167.595 110.519C166.382 109.455 165.504 108.006 165.19 106.422C165.368 107.296 166.018 108.063 166.86 108.375C165.989 107.345 165.604 105.926 165.832 104.598C166.36 105.088 166.896 105.57 167.423 106.053C166.953 104.839 167.052 103.42 167.688 102.284C167.452 101.921 167.224 101.559 166.989 101.197C167.367 100.743 167.866 100.387 168.416 100.174C167.673 99.6705 166.938 99.1733 166.203 98.6761C166.731 98.2721 167.38 98.0162 168.045 97.9376C167.881 97.5044 167.488 97.1635 167.031 97.0574C167.402 96.4963 168.016 96.0987 168.68 95.9853C167.938 95.1829 167.646 93.9974 167.923 92.9463C168.58 92.897 168.908 91.9172 168.416 91.4912C169.537 91.569 170.35 90.0143 169.651 89.1478C170.293 89.0839 170.929 89.0126 171.571 88.9494C171.2 88.1964 170.821 87.4433 170.45 86.6911C171.384 86.4004 172.356 86.2295 173.341 86.1874C173.469 85.6125 173.147 84.9655 172.613 84.7177C174.232 83.7306 176.131 83.2262 178.03 83.2691C178.087 82.5808 178.136 81.8844 178.194 81.1888L183.176 82.6869C183.96 82.9282 185.26 82.7014 185.003 81.92C185.574 81.9419 186.123 82.2472 186.444 82.7152C186.837 82.5735 187.137 82.1824 187.165 81.7637C187.787 82.3387 188.322 83.0132 188.75 83.7452C189.556 83.6521 190.392 84.1493 190.684 84.9023C191.126 84.2983 191.298 83.5031 191.126 82.7792C191.919 83.6456 192.604 84.6108 193.16 85.6473C193.617 85.2926 194.067 84.938 194.523 84.5825C194.81 85.0724 195.088 85.5696 195.373 86.0595C195.966 85.1218 196.479 84.1355 196.893 83.1063C197.407 84.3412 197.978 85.5623 198.599 86.7485C198.855 87.2384 199.12 87.7211 199.391 88.1964C199.605 87.9486 199.813 87.6927 200.027 87.4433C200.276 88.232 200.534 89.0272 200.783 89.8223C201.254 89.8726 201.732 89.8151 202.182 89.6734C202.168 90.2774 202.154 90.8807 202.146 91.4912C202.425 91.5196 202.711 91.5479 202.995 91.5835C203.024 92.2224 202.881 92.8686 202.575 93.4298C203.039 94.2533 202.988 95.3319 202.453 96.1133C202.946 95.7084 203.552 95.4315 204.188 95.3246C204.43 96.7522 203.681 98.1368 202.952 99.3863L202.496 100.181C202.545 100.196 202.588 100.217 202.646 100.217C202.361 100.628 202.068 101.033 201.783 101.445Z" fill="#E8B485"/>
<path fill-rule="evenodd" clip-rule="evenodd" d="M240.555 242.119L220.91 251.791L215.878 259.196C214.39 258.88 212.859 258.676 212.215 259C211.924 259.147 211.591 259.161 211.229 259.091C209.855 258.838 208.09 257.361 206.779 257.361C206.063 257.361 201.18 256.081 195.255 254.927C193.456 254.569 191.563 254.231 189.656 253.935C188.665 253.788 187.666 253.647 186.681 253.527C185.483 253.38 184.299 253.26 183.152 253.182C182.698 253.985 182.244 254.772 181.77 255.546C172.195 271.449 159.772 281.859 159.772 281.859L156.512 279.418L134.386 262.882L132.501 261.468V261.454C132.834 261.236 138.234 257.663 141.587 251.791C142.955 249.391 143.982 246.613 144.181 243.526C144.223 242.893 144.308 242.225 144.442 241.528C144.868 239.257 145.746 236.668 146.874 233.988C145.654 230.563 148.787 226.645 148.787 226.645C148.787 226.645 148.156 226.293 148.085 224.851C148.042 224.007 148.198 222.777 148.787 221.017C149.488 218.921 151.678 216.171 153.911 213.759L203.115 214.568C206.906 216.572 214.497 220.737 222.023 225.758C229.556 230.787 237.019 236.674 240.555 242.119Z" fill="#023297"/>
<path fill-rule="evenodd" clip-rule="evenodd" d="M176.994 132.223C176.994 132.223 162.494 142.07 161.415 147.697C160.337 153.323 160.816 147.697 160.816 147.697C160.816 147.697 159.723 140.663 163.146 135.74C166.568 130.817 176.994 132.223 176.994 132.223Z" fill="#FF5858"/>
<path fill-rule="evenodd" clip-rule="evenodd" d="M167.006 125.169C167.006 125.169 155.607 120.128 154.111 118.105C152.614 116.082 148.585 119.772 150.082 120.842C151.578 121.913 154.226 127.354 167.006 125.169Z" fill="#FF5858"/>
<path fill-rule="evenodd" clip-rule="evenodd" d="M143.454 122.065C145.696 121.648 150.046 129.706 154.401 130.291C158.757 130.877 165.584 129.471 166.879 130.291C168.173 131.111 159.227 135.779 156.873 141.471C154.519 147.163 138.51 145.405 138.863 136.5C139.216 127.596 139.805 122.743 143.454 122.065Z" fill="#FF5858"/>
<path fill-rule="evenodd" clip-rule="evenodd" d="M135.185 143.015C135.596 141.98 137.993 151.168 144.427 151.404C150.861 151.641 157.413 157.786 156.945 159.912C156.477 162.04 147.586 158.023 143.258 160.621C138.929 163.221 152.854 169.603 152.677 172.084C152.499 174.566 165.471 179.882 163.08 182.187C160.688 184.492 147.196 185.134 141.269 178.465C135.341 171.796 130.74 154.241 135.185 143.015Z" fill="#FF5858"/>
<path fill-rule="evenodd" clip-rule="evenodd" d="M146.122 195.225C146.143 190.337 150.304 188.847 155.391 189.328C160.479 189.81 171.719 196.548 177.636 200.64C183.552 204.732 202.247 208.342 198.225 209.907C194.201 211.471 146.081 204.491 146.122 195.225Z" fill="#FF5858"/>
<path fill-rule="evenodd" clip-rule="evenodd" d="M163.517 153.008C162.766 149.268 164.745 140.843 175.115 140.253C185.484 139.662 190.462 145.331 190.505 146.63C190.547 147.93 178.405 143.206 175.115 144.976C171.825 146.748 173.708 150.488 177.947 150.095C182.187 149.701 188.637 147.103 190.063 148.166C191.49 149.229 189.958 158.56 189.487 161.984C189.016 165.409 191.217 169.07 192.766 166.591C194.315 164.11 191.96 156.197 193.255 156.315C194.551 156.433 204.324 175.921 202.087 178.637C199.849 181.354 183.482 174.503 181.127 169.661C178.773 164.819 179.008 156.906 174.415 158.678C169.823 160.449 164.275 156.787 163.517 153.008Z" fill="#FF5858"/>
<path fill-rule="evenodd" clip-rule="evenodd" d="M192.43 186.081C192.43 186.081 204.451 187.92 205.045 183.794C205.045 183.794 214.196 189.106 213.245 190.8C212.294 192.494 200.017 193.341 192.43 186.081Z" fill="#FF5858"/>
<path fill-rule="evenodd" clip-rule="evenodd" d="M205.142 193.887C205.142 193.887 213.608 195.026 215.543 192.874C215.543 192.874 223.647 196.293 219.294 198.571C214.939 200.851 207.313 196.707 205.142 193.887Z" fill="#FF5858"/>
<path fill-rule="evenodd" clip-rule="evenodd" d="M206.05 200.778C206.05 200.778 214.695 202.993 221.939 200.138L226.027 203.496C226.027 203.496 210.624 207.498 206.05 200.778Z" fill="#FF5858"/>
<path fill-rule="evenodd" clip-rule="evenodd" d="M226.027 208.393L229.493 205.586L234.199 208.393L230.979 210.127L226.027 208.393Z" fill="#FF5858"/>
<path fill-rule="evenodd" clip-rule="evenodd" d="M150.368 227.531C150.368 227.531 178.86 224.216 192.43 218.299C192.43 218.299 155.837 233.449 150.368 231.792C144.9 230.135 150.368 227.531 150.368 227.531Z" fill="#0448D8"/>
<path fill-rule="evenodd" clip-rule="evenodd" d="M148.018 236.088C148.018 236.088 163.018 233.84 172.454 229.195C172.454 229.195 146.31 245.916 148.018 236.088Z" fill="#0448D8"/>
<path fill-rule="evenodd" clip-rule="evenodd" d="M203.222 217.391C203.222 217.391 170.92 246.095 149.754 251.895C149.754 251.895 211.997 227.935 222.395 229.575C222.395 229.575 215.145 224.629 210.617 225.11C206.091 225.591 193.331 233.793 194.276 231.215C195.221 228.638 206.872 221.858 213.829 223.453C213.829 223.453 206.496 218.094 203.222 217.391Z" fill="#0448D8"/>
<path fill-rule="evenodd" clip-rule="evenodd" d="M208.774 239.742C208.774 239.742 217.228 229.841 230.261 233.734C230.261 233.734 231.795 235.446 236.015 238.534C236.015 238.534 222.278 243.736 216.349 250.079C216.349 250.079 210.066 248.67 216.349 241.974C222.63 235.277 208.774 239.742 208.774 239.742Z" fill="#0448D8"/>
<path fill-rule="evenodd" clip-rule="evenodd" d="M192.418 240.999C192.905 241.475 178.663 252.036 172.782 253.784C166.901 255.533 137.605 262.205 138.899 260.776C140.194 259.346 192.418 240.999 192.418 240.999Z" fill="#0448D8"/>
<path fill-rule="evenodd" clip-rule="evenodd" d="M241.463 244.631L244.164 251.827L249.091 255.527C249.091 255.527 252.671 245.262 241.463 244.631Z" fill="#F4C7A2"/>
<path fill-rule="evenodd" clip-rule="evenodd" d="M194.246 100.311C194.246 100.311 190.077 114.302 190.484 116.3C191.514 121.357 187.792 129.313 187.792 129.313L186.581 122.6C186.581 122.6 181.973 112.734 180.752 113.385C179.53 114.029 176.563 123.07 176.563 123.07L169.323 113.385L167.055 111.704L168.451 110.268C167.264 109.218 166.405 107.789 166.098 106.228C166.272 107.089 166.908 107.846 167.732 108.154C166.881 107.139 166.503 105.738 166.727 104.429C167.243 104.912 167.767 105.388 168.283 105.864C167.822 104.667 167.92 103.266 168.542 102.145C168.311 101.788 168.088 101.431 167.857 101.074C168.227 100.626 168.717 100.276 169.253 100.066C168.527 99.5683 167.809 99.0787 167.09 98.5883C167.606 98.189 168.241 97.9366 168.89 97.86C168.73 97.4327 168.346 97.0965 167.899 96.9919C168.262 96.4384 168.862 96.0463 169.513 95.9345C168.786 95.143 168.5 93.973 168.772 92.9372C169.415 92.8885 169.736 91.9221 169.253 91.5012C169.959 91.5507 170.538 90.9342 170.678 90.2689L194.246 100.311Z" fill="#B57F57"/>
<path fill-rule="evenodd" clip-rule="evenodd" d="M201.783 101.545C202.175 101.788 202.567 102.023 202.96 102.265C202.775 102.394 202.575 102.544 202.396 102.708L200.512 102.836L198.014 107.353L191.154 110.607C191.597 110.335 193.303 109.079 191.055 107.353C188.5 105.398 186.13 112.726 186.13 112.726L184.71 110.664L183.918 113.175L182.14 110.664L181.419 113.175L178.743 110.664V114.788L177.673 113.175L176.602 115.693C172.198 111.655 167.595 110.664 167.595 110.664C166.382 109.594 165.504 108.138 165.19 106.546C165.368 107.424 166.018 108.195 166.86 108.509C165.989 107.474 165.604 106.047 165.832 104.713C166.36 105.205 166.896 105.69 167.423 106.175C166.953 104.955 167.052 103.529 167.688 102.387C167.452 102.023 167.224 101.659 166.989 101.295C167.367 100.839 167.866 100.481 168.416 100.267C167.673 99.7613 166.938 99.2617 166.203 98.7621C166.731 98.356 167.38 98.0989 168.045 98.0199C167.881 97.5846 167.488 97.242 167.031 97.1354C167.402 96.5715 168.016 96.172 168.68 96.0581C167.938 95.2517 167.646 94.0604 167.923 93.0041C168.58 92.9545 168.908 91.9699 168.416 91.5419C168.972 91.5769 169.458 91.2131 169.715 90.7208C169.972 90.2358 170.001 89.6223 169.651 89.1869C170.293 89.1227 170.929 89.0511 171.571 88.9876C171.2 88.2308 170.821 87.4741 170.45 86.7181C171.384 86.426 172.356 86.2543 173.341 86.212C173.469 85.6342 173.147 84.984 172.613 84.735C174.232 83.7431 176.131 83.2362 178.03 83.2793C178.087 82.5876 178.136 81.8878 178.194 81.1888L183.176 82.6942C183.96 82.9367 185.26 82.7089 185.003 81.9236C185.574 81.9456 186.123 82.2524 186.444 82.7227C186.738 82.6153 186.979 82.3728 187.087 82.0807C187.129 81.9806 187.158 81.874 187.165 81.7666C187.787 82.3443 188.322 83.0222 188.75 83.7578C189.556 83.6642 190.392 84.1638 190.684 84.9206C191.126 84.3135 191.298 83.5145 191.126 82.787C191.919 83.6577 192.604 84.6276 193.16 85.6692C193.617 85.3128 194.067 84.9564 194.523 84.5992C194.81 85.0915 195.088 85.5911 195.373 86.0834C195.966 85.1411 196.479 84.15 196.893 83.1157C197.407 84.3567 197.978 85.5838 198.599 86.7759C198.855 87.2682 199.12 87.7532 199.391 88.2308C199.605 87.9818 199.813 87.7247 200.027 87.4741C200.276 88.2666 200.534 89.0657 200.783 89.8648C201.254 89.9152 201.732 89.8575 202.182 89.7151C202.168 90.3221 202.154 90.9283 202.146 91.5419C202.425 91.5704 202.711 91.5988 202.995 91.6346C203.024 92.2767 202.881 92.926 202.575 93.4899C203.039 94.3175 202.988 95.4014 202.453 96.1866C202.946 95.7798 203.552 95.5015 204.188 95.3941C204.43 96.8287 203.681 98.2201 202.952 99.4757L202.496 100.275C202.545 100.289 202.588 100.311 202.646 100.311C202.361 100.724 202.068 101.131 201.783 101.545Z" fill="#F9AE40"/>
<path fill-rule="evenodd" clip-rule="evenodd" d="M68.9406 77.8548C68.9406 77.8548 67.5558 77.3505 65.8987 77.8C64.6976 78.1265 61.1215 77.8548 61.1215 77.8548C60.3225 77.6903 59.4529 77.6833 58.5242 77.944C53.309 79.427 54.5388 77.2715 54.5388 77.2715L59.5743 75.7408L67.185 77.3059C67.5091 77.3333 67.7962 77.3819 68.0267 77.457C68.2934 77.5455 68.6027 77.6763 68.9406 77.8548Z" fill="#B57F57"/>
<path fill-rule="evenodd" clip-rule="evenodd" d="M248.608 215.578C248.611 215.404 251.682 221.222 251.437 221.725C251.192 222.228 250.64 223.233 249.658 222.675C248.677 222.116 247.819 216.864 247.819 216.864C247.819 216.864 248.601 216.025 248.608 215.578Z" fill="#F4C7A2"/>
<path fill-rule="evenodd" clip-rule="evenodd" d="M246.776 217.391L247.819 223.29C247.819 223.29 247.175 224.655 246.473 224.655C245.771 224.655 246.063 218.341 246.063 218.341C246.063 218.341 246.669 217.736 246.776 217.391Z" fill="#F4C7A2"/>
<path fill-rule="evenodd" clip-rule="evenodd" d="M245.095 219.207C245.095 219.207 244.606 223.189 243.978 223.574C243.35 223.962 242.371 223.574 242.371 223.574C242.371 223.574 244.047 220.479 244.047 219.815C244.047 219.815 244.676 219.705 245.095 219.207Z" fill="#F4C7A2"/>
<path fill-rule="evenodd" clip-rule="evenodd" d="M253.267 218.271C252.937 219.163 252.367 219.207 252.367 219.207L249.635 214.491C249.813 214.063 249.635 212.851 249.635 212.851C249.635 212.851 249.641 212.858 249.66 212.873C250.788 213.896 252.652 217.16 253.267 218.271Z" fill="#F4C7A2"/>
<path fill-rule="evenodd" clip-rule="evenodd" d="M239.038 222.46C239.133 222.389 239.237 222.341 239.348 222.309C239.269 222.365 239.157 222.412 239.038 222.46Z" fill="#B57F57"/>
<path fill-rule="evenodd" clip-rule="evenodd" d="M245.517 222.596C245.541 222.412 245.565 222.262 245.581 222.174C245.573 222.262 245.549 222.412 245.517 222.596Z" fill="#B57F57"/>
<path fill-rule="evenodd" clip-rule="evenodd" d="M246.003 225.334L239.835 226.471C239.835 226.471 238.885 225.334 241.257 224.189C241.257 224.189 243.958 224.808 244.426 224.088C244.74 223.6 244.949 222.549 245.054 221.931C244.942 222.801 244.879 224.607 246.003 225.334Z" fill="#B57F57"/>
<path fill-rule="evenodd" clip-rule="evenodd" d="M248.727 212.921L248.436 214.688C248.436 214.688 246.845 215.807 246.994 216.8C246.994 216.8 246.483 216.567 245.808 217.27C245.127 217.974 245.127 218.531 245.127 218.531C245.127 218.531 244.659 217.799 244.303 217.919C243.948 218.031 242.051 222.839 242.051 222.839C242.051 222.839 240.489 222.367 239.608 222.339C240.432 222.31 241.185 222.677 240.148 221.993C239.771 221.748 238.323 221.269 236.569 220.502C234.807 219.735 232.741 218.672 231.135 217.257C231.135 217.257 230.944 217.166 230.582 216.989C230.348 216.87 230.035 216.722 229.659 216.532C232.243 214.843 235.766 212.308 238.742 210.127C242.406 211.056 246.909 212.224 248.436 212.808C248.55 212.851 248.649 212.886 248.727 212.921Z" fill="#B57F57"/>
<path fill-rule="evenodd" clip-rule="evenodd" d="M253.267 223.517L253.246 224.267C253.246 224.267 251.516 224.798 251.301 223.028L250.931 226.469C250.931 226.469 248.9 226.559 249.038 225.298L249.074 223.916L247.819 224.741L248.305 222.802C248.305 222.802 249.342 223.523 249.821 223.772C250.307 224.019 251.635 222.371 251.635 222.371L251.344 219.207C251.402 219.645 251.889 223.028 253.267 223.517Z" fill="#B57F57"/>
<path fill-rule="evenodd" clip-rule="evenodd" d="M195.154 96.4677L192.069 99.4233V101.466L189.805 99.8414L187.511 102.392L186.428 100.65L184.44 104.797L181.891 102.163L180.172 104.135L179.351 100.539L176.4 103.556L174.39 100.19L171.446 102.163V100.42L169.089 100.768L170.151 99.2556L167.914 97.6315L170.505 96.8159C170.505 96.8159 168.919 95.5615 168.353 94.1464L169.556 94.4954L169.322 92.6758H171.212C171.212 92.6758 170.427 91.8745 169.57 90.5008C169.825 90.027 169.854 89.4276 169.507 89.0024C170.144 88.9396 170.774 88.8696 171.41 88.8076C171.042 88.0683 170.667 87.329 170.299 86.5905C171.226 86.3051 172.189 86.1374 173.166 86.096C173.293 85.5316 172.975 84.8965 172.444 84.6532C174.051 83.6842 175.933 83.1889 177.816 83.231C177.872 82.5553 177.921 81.8717 177.978 81.1888L182.918 82.6595C183.697 82.8964 184.984 82.673 184.73 81.9067C185.296 81.9273 185.841 82.227 186.159 82.6873C186.45 82.5824 186.691 82.3455 186.797 82.0601L187.511 84.9664L188.445 83.6985L189.805 86.6469L191.262 85.5523V88.7996L193.619 88.1033L192.678 92.1742H194.327L192.069 96.4677H195.154Z" fill="#FFDC15"/>
<path fill-rule="evenodd" clip-rule="evenodd" d="M306.84 307.703C296.404 309.177 295.676 319.996 295.676 319.996L284.978 309.703C275.696 300.765 268.989 297.891 265.629 296.295C264.835 295.92 263.569 294.934 262.056 293.586C257.62 289.62 251.125 282.54 248.727 278.618C254.244 275.517 260.103 272.425 261.914 272.161C265.629 271.616 266.187 268.239 266.187 268.239L269.343 269.87L274.684 275.305L281.901 282.639L284.024 285.477L303.932 307.703H306.84Z" fill="#CFD1D2"/>
<path fill-rule="evenodd" clip-rule="evenodd" d="M119.789 254.313C104.167 256.737 101.393 273.687 101.393 273.687H98.0886L92.1956 268.335V266.123C92.1956 266.123 82.5302 256.22 74.8321 248.529C74.6134 248.308 74.394 248.089 74.1809 247.876L66.3634 241.786H63.4205C63.4205 241.786 63.1018 241.616 62.5846 241.36L67.3115 232.938L78.5892 231.919L79.2049 232.343L80.3515 233.138L86.9102 237.703C103.424 248.039 115.728 251.016 119.789 254.313Z" fill="#CFD1D2"/>
<path fill-rule="evenodd" clip-rule="evenodd" d="M57.2714 215.259C57.2714 215.259 58.3111 223.608 57.2714 224.316C56.2316 225.024 61.4312 222.574 65.0707 222.996C65.0707 222.996 59.7359 224.94 61.1038 226.589C62.4709 228.237 62.6441 231.451 65.0707 229.486C67.4974 227.523 71.8303 225.887 75.2967 227.151C75.2967 227.151 69.5769 214.569 67.3242 213.547C65.0707 212.526 59.6972 212.28 57.2714 215.259Z" fill="#FF5858"/>
<path fill-rule="evenodd" clip-rule="evenodd" d="M340.436 315.589C337.46 316.974 333.008 318.792 330.567 318.579C326.688 318.235 319.81 324.262 319.104 323.573C318.4 322.884 313.814 318.407 320.868 317.546C320.868 317.546 309.758 317.546 307.642 315.134C305.525 312.724 304.116 311.346 304.116 311.346C304.116 311.346 306.076 309.713 308.538 309.1C309.914 310.526 312.658 313.095 315.049 313.584C318.4 314.273 322.28 316.168 322.28 316.168C322.28 316.168 334.059 315.472 340.436 315.589Z" fill="#FF5858"/>
<path fill-rule="evenodd" clip-rule="evenodd" d="M263.255 276.86C263.255 276.86 267.104 282.183 267.98 281.473C268.855 280.763 275.189 281.473 275.189 281.473L271.479 283.07L296.852 303.652C296.852 303.652 283.028 284.49 280.053 282.36L270.429 272.779C270.429 272.779 267.747 276.17 263.255 276.86Z" fill="white"/>
<path fill-rule="evenodd" clip-rule="evenodd" d="M94.9082 260.865L98.8184 262.791C98.8184 262.791 105.573 254.529 111.617 253.263L103.263 248.884H98.9968L100.952 247.989C100.952 247.989 83.9299 238.694 81.2207 235.551C81.2207 235.551 79.4431 236.776 78.0208 240.137L92.2419 255.153C92.2419 255.153 93.1306 253.999 94.8198 253.263C94.8198 253.263 93.3496 260.097 94.9082 260.865Z" fill="white"/>
<path fill-rule="evenodd" clip-rule="evenodd" d="M117.321 260.083L125.237 267.331C125.237 267.331 115.242 267.32 111.69 266.266C108.14 265.212 115.209 259.739 117.321 260.083Z" fill="#F4C7A2"/>
<path fill-rule="evenodd" clip-rule="evenodd" d="M145.214 271.871C145.214 271.871 133.51 270.67 131.065 270.15C128.62 269.629 123.729 262.978 123.729 262.978L128.969 265.289L121.605 255.527C121.926 255.812 122.241 256.111 122.549 256.409C126.279 260.027 129.151 264.095 130.89 264.477C131.352 264.581 132.127 264.22 133.071 263.588L145.214 271.871Z" fill="#B57F57"/>
<path fill-rule="evenodd" clip-rule="evenodd" d="M155.202 279.953V279.961C154.889 280.207 154.606 280.423 154.349 280.597C154.231 280.676 154.12 280.749 154.016 280.807C152.705 281.581 151.423 282.334 150.196 283.071C146.452 285.307 143.221 287.369 141.307 289.322C140.398 290.241 138.964 291.11 137.355 291.848C140.669 289.561 143.907 283.071 143.907 283.071C141.134 284.489 133.409 283.071 133.409 283.071L145.12 271.871L155.202 279.953Z" fill="#B57F57"/>
<path fill-rule="evenodd" clip-rule="evenodd" d="M264.163 270.055L249.777 267.926L219.671 256.435L222.076 250.159L238.642 242.815V249.621C238.642 249.621 230.292 251.778 229.554 253.936C228.815 256.093 242.504 256.093 242.504 256.093L241.316 253.105C241.316 253.105 251.642 260.114 254.033 255.137L255.524 256.694L262.953 264.435C261.046 263.262 258.711 261.909 256.777 260.986L264.163 270.055Z" fill="#B57F57"/>
<path fill-rule="evenodd" clip-rule="evenodd" d="M183.443 126.961C185.373 127.609 188.282 132.354 190.614 129.08C190.614 129.08 189.196 130.696 188.249 129.08C186.951 126.865 186.959 120.095 182.442 115.693C182.552 116.066 184.781 123.819 183.443 126.961Z" fill="#000523"/>
<path fill-rule="evenodd" clip-rule="evenodd" d="M183.35 252.803C182.149 254.182 181.581 255.057 181.534 255.527C182.159 254.636 182.753 253.728 183.35 252.803Z" fill="#000523"/>
<path fill-rule="evenodd" clip-rule="evenodd" d="M182.442 253.365C183.581 253.443 184.756 253.563 185.944 253.711C193.956 248.398 209.085 236.038 209.682 235.551C209.035 235.763 191.065 241.903 182.442 253.365Z" fill="#000523"/>
<path fill-rule="evenodd" clip-rule="evenodd" d="M213.315 241.907C213.315 241.907 195.632 247.9 188.798 253.607C190.734 253.908 192.654 254.253 194.481 254.619C202.279 251.052 212.99 244.563 213.315 241.907Z" fill="#000523"/>
<path fill-rule="evenodd" clip-rule="evenodd" d="M150.29 206.495C148.039 206.523 146.779 206.921 146.122 207.472C146.901 208.692 148.96 210.568 153.284 213.518C151.054 215.911 148.867 218.637 148.167 220.716C147.58 222.459 147.424 223.679 147.466 224.516C164.72 226.051 202.418 214.32 202.418 214.32C202.418 214.32 157.898 206.419 150.29 206.495Z" fill="#000523"/>
<path fill-rule="evenodd" clip-rule="evenodd" d="M144.431 241.514C144.296 242.219 144.212 242.895 144.17 243.535C143.971 246.658 142.946 249.469 141.582 251.895C158.235 248.537 196.612 219.273 197.878 218.299C161.664 239.53 148.837 241.935 144.431 241.514Z" fill="#000523"/>
<path fill-rule="evenodd" clip-rule="evenodd" d="M132.501 260.975L134.384 262.391C133.875 262.799 133.379 263.166 132.926 263.468C134.979 271.065 143.474 278.881 150.412 282.767C151.664 282.05 152.974 281.317 154.312 280.564C154.886 280.247 155.622 279.684 156.486 278.944L159.742 281.388C156.429 269.777 133.231 261.236 132.501 260.975Z" fill="#000523"/>
<path fill-rule="evenodd" clip-rule="evenodd" d="M192.034 183.68C190.877 181.568 155.966 158.333 159.14 145.658C159.14 145.658 148.92 156.213 171.821 167.831C171.13 167.62 144.851 159.43 146.17 162.556C147.453 165.613 172.349 177.836 174.12 178.709C172.674 178.054 155.628 170.38 155.966 172.063C156.312 173.801 181.687 189.567 182.393 190.01C181.835 189.862 160.212 184.067 161.256 186.496C162.074 188.398 181.856 203.043 199.376 207.754C197.104 205.691 194.594 203.458 193.93 201.494C193.543 200.353 193.423 199.22 193.479 198.129C197.315 201.453 202.655 205.346 208.465 207.4L208.459 207.402L208.48 207.409C208.58 207.444 208.68 207.473 208.78 207.506C209.106 207.618 209.431 207.727 209.76 207.827C209.922 207.876 210.086 207.917 210.249 207.963C210.546 208.046 210.842 208.131 211.14 208.204C211.361 208.257 211.584 208.299 211.806 208.347C212.05 208.399 212.293 208.456 212.538 208.501C213.008 208.587 213.48 208.657 213.952 208.711C213.952 208.711 219.475 213.352 228.545 216.076C229.215 216.407 229.737 216.668 230.089 216.843C230.449 217.02 230.639 217.111 230.639 217.111C237.96 219.034 240.775 218.534 244.829 216.245C246.635 215.224 247.459 213.866 247.819 212.661C246.008 211.964 239.97 210.422 236.168 209.471C235.809 209.247 235.45 209.021 235.097 208.795C233.848 209.838 232.318 210.936 230.9 211.478C227.727 212.696 221.909 208.711 221.909 208.711C221.909 208.711 228.255 205.684 224.941 204.804C222.375 204.123 213.912 206.051 210.215 206.958C206.151 204.91 199.891 201.302 197.309 197.41C197.309 197.41 203.106 199.523 205.631 198.819C208.148 198.114 183.908 183.73 178.915 180.173C179.628 180.449 193.161 185.737 192.034 183.68Z" fill="#000523"/>
<path fill-rule="evenodd" clip-rule="evenodd" d="M343.915 315.587C341.439 319.46 330.823 320.165 327.992 323.334C325.162 326.503 314.192 327.208 313.13 326.503C312.069 325.8 310.653 317.347 307.469 316.643C304.284 315.938 300.746 310.304 300.746 310.304C297.286 313.065 296.5 308.896 292.253 303.614C288.007 298.332 266.068 283.16 266.068 283.16C263.237 284.892 258.638 278.61 257.222 276.145C257.222 276.145 264.83 275.616 269.607 269.982L266.45 268.362L265.07 266.926C263.516 267.773 261.41 268.814 259.192 269.615C257.013 267.576 254.204 264.702 252.798 262.253C249.264 260.505 245.884 258.465 242.509 256.422C244.118 258.754 244.13 261.361 244.13 261.361C237.588 262.669 227.569 258.155 222.79 255.713C231.234 249.239 239.876 241.986 239.876 241.986C239.876 241.986 225.588 239.761 210.59 258.981C210.952 259.051 211.285 259.037 211.575 258.889C212.465 258.446 215.054 258.999 216.863 259.477L216.862 259.48C217.095 259.537 217.315 259.601 217.52 259.657C218.248 259.854 218.737 260.015 218.744 260.015L241.645 267.87C241.645 267.87 246.252 272.975 248.376 277.553C250.499 282.132 262.529 294.633 265.891 296.218C269.253 297.802 275.962 300.655 285.247 309.53L295.947 319.749C294.376 325.447 306.739 336.048 306.739 336.048C320.187 337.717 318.46 331.842 328.7 328.617C334.248 326.87 345.509 316.643 343.915 315.587Z" fill="#000523"/>
<path fill-rule="evenodd" clip-rule="evenodd" d="M132.57 118.039C123.777 118.754 101.202 113.037 99.793 113.752C98.3835 114.467 115.293 122.298 115.293 122.298C110.721 121.934 104.789 120.433 98.905 118.589C105.288 123.777 111.629 127.757 116.357 128.106C118.203 129.801 120.402 131.293 122.896 132.13C126.644 135.852 130.751 139.496 134.599 142.026C139.108 134.573 136.078 123.041 146.126 119.111C156.067 115.224 163.219 115.203 163.374 115.203C163.099 115.014 162.828 114.834 162.561 114.661C162.435 114.58 162.314 114.507 162.189 114.428C162.041 114.335 161.891 114.239 161.744 114.151C161.721 114.138 161.698 114.123 161.676 114.11C161.677 114.111 161.678 114.112 161.679 114.114C160.212 113.238 158.899 112.651 157.857 112.516C151.671 111.694 151.671 112.516 151.671 112.516C151.671 112.516 141.913 109.058 135.761 112.152C130.696 111.166 125.348 109.937 120.148 108.429C120.5 110.508 120.93 112.13 120.93 112.68C120.93 114.467 132.57 118.039 132.57 118.039Z" fill="#000523"/>
<path fill-rule="evenodd" clip-rule="evenodd" d="M65.6003 88.5984C66.2983 89.2032 69.4653 90.5468 72.4264 91.7211C72.4762 92.2344 72.539 92.5649 72.539 92.5649C72.539 92.5649 74.0203 94.4218 76.9179 97.4322C80.4443 101.244 85.7545 106.779 91.5504 112.061C91.2609 111.703 87.1924 106.744 87.1924 104.48C87.1924 102.137 107.077 103.685 107.077 103.685C89.1804 89.5481 90.0063 93.0085 88.7928 92.143C88.7928 92.143 78.1459 93.2267 78.4981 91.9393C78.745 91.0321 82.1926 89.281 85.161 88.957C82.8344 87.6134 80.6341 87.4875 80.6277 87.4875L77.7928 84.5052H77.7856C77.6232 84.5333 72.2567 85.5247 71.9117 87.5998C71.5586 89.7094 67.0599 84.1956 67.0599 84.1956C65.5729 84.3151 62.6738 84.4844 61.3694 84.1114C58.4855 83.2956 58.9857 85.2576 58.9857 85.2576C58.9857 85.2576 62.2443 85.6659 65.6003 88.5984Z" fill="#000523"/>
<path fill-rule="evenodd" clip-rule="evenodd" d="M176.246 126.533C175.838 126.232 162.751 116.615 161.365 116.272C159.958 115.922 158.782 117.322 160.894 118.841C162.815 120.219 173.924 126.603 175.936 127.764C171.512 125.392 166.157 126.917 165.587 127.94C164.995 128.99 169.688 129.22 176.725 130.97C182.149 132.321 187.215 140.601 189.706 143.842C188.812 142.001 187.975 140.349 187.208 138.977C185.639 136.157 183.374 133.336 180.854 130.676C180.826 130.641 180.792 130.606 180.749 130.564C180.313 130.102 179.87 129.647 179.42 129.199L179.412 129.192C179.553 128.436 179.722 127.666 179.919 126.897C180.172 126.603 180.461 126.414 180.777 126.315C181.608 122.137 180.883 115.215 180.334 115.18C179.609 115.138 178.484 124.831 178.484 124.831C178.484 124.831 178.012 122.109 175.459 117.56C172.897 113.01 167.845 110.245 167.845 110.245L163.173 115.012C168.992 117.098 176.021 126.239 176.246 126.533Z" fill="#000523"/>
<path fill-rule="evenodd" clip-rule="evenodd" d="M189.043 115.624C189.043 115.624 189.902 116.686 190.181 116.45C190.46 116.214 190.148 112.555 191.307 111.965C192.466 111.374 194.364 108.653 195.073 108.459C195.781 108.264 196.362 108.593 197.405 108.459C198.03 108.378 199.813 106.385 199.936 104.281C200.041 105.249 200.054 106.486 199.867 108.069C199.867 108.069 198.438 112.811 197.405 112.142C196.037 111.256 194.561 112.23 194.383 113.293C194.207 114.355 195.711 117.759 192.971 122.207C191.922 123.9 191.47 125.797 191.307 127.497C192.054 126.424 193.998 126.278 194.176 124.537C194.176 124.537 195.193 123.906 195.016 123.551C195.016 123.551 195.264 122.663 196.154 122.194C196.154 122.194 197.187 122.972 198.099 122.757C198.982 122.547 198.573 120.493 198.833 118.633C198.976 117.602 198.85 116.356 198.711 115.458C198.605 114.777 198.776 114.08 199.21 113.545C200.501 111.952 201.048 109.373 201.199 107.067C201.213 106.947 201.635 106.33 201.642 106.21C202.087 105.636 202.58 105.696 202.969 105.08C202.317 104.315 204.081 101.716 204.916 101.163C204.527 100.922 204.573 100.962 204.184 100.72C204.467 100.31 204.633 99.4498 204.916 99.0387C204.86 99.0387 205.187 98.2309 205.137 98.2172L204.916 97.4449C205.639 96.1985 204.378 96.6162 204.138 95.1929C203.507 95.2987 204.673 94.1193 204.184 94.5232C204.715 93.7445 202.997 94.1234 202.537 93.3019C202.841 92.7421 202.984 92.0975 202.955 91.4601C202.672 91.4246 202.388 91.3963 202.113 91.368C202.119 90.759 202.134 90.1572 202.149 89.5546C201.702 89.6959 201.227 89.7533 200.76 89.7032C200.512 88.91 200.257 88.1167 200.009 87.3308C199.797 87.5788 199.592 87.834 199.379 88.0812C199.11 87.607 198.848 87.1256 198.593 86.6369L198.189 89.0303L198.912 88.5069C198.912 88.5069 199.464 90.2775 198.912 92.5716C198.912 92.5716 200.222 92.402 200.491 91.8632C200.491 91.8632 200.222 95.7591 199.606 96.6517L200.93 97.4449C200.93 97.4449 199.549 100.986 198.912 101.255C198.912 101.255 199.178 101.515 199.448 102.18C199.25 102.923 198.904 103.958 198.367 104.764L197.069 104.056L196.361 106.299L194.944 103.76V107.067H193.646V109.013L192.447 109.839C192.447 109.839 193.292 104.645 190.696 104.645C188.099 104.645 187.391 111.138 188.217 113.382L189.043 115.624Z" fill="#000523"/>
<path fill-rule="evenodd" clip-rule="evenodd" d="M121.047 282.932C121.047 282.932 118.57 275.375 116.447 274.494C114.323 273.612 106.184 272.01 106.184 272.01L111.492 277.668C111.492 277.668 105.95 275.199 102.822 273.435C102.822 273.435 110.331 255.555 122.151 256.297C121.387 255.549 120.587 254.822 119.752 254.151C118.804 253.39 117.416 252.642 115.625 251.816C110.218 254.321 101.321 259.67 100.345 268.108L93.7973 265.497C93.7973 265.497 92.7358 259.817 93.79 255.168C93.6423 255.394 91.3062 259.049 91.1359 261.094L74.8085 243.34C75.6052 237.848 78.8736 235.021 80.3 233.077L77.7443 231.313C78.8704 230.833 79.4007 230.233 78.7001 229.478C70.3277 225.739 66.9019 231.277 64.2478 230.395C61.5937 229.514 57.1694 234.276 55.7536 230.042C54.3385 225.81 43.7221 243.096 42.8366 239.039C42.257 236.378 45.8661 228.166 48.4217 222.839C46.6805 224.511 45.0242 226.091 44.0192 227.34C41.1875 230.869 32.2202 249.446 36.4669 248.267C40.7137 247.097 53.3053 238.7 56.2855 239.095C59.2649 239.497 63.3631 241.684 63.3631 241.684H66.3078L74.128 247.745C74.3411 247.957 74.5599 248.176 74.7795 248.395C82.4802 256.05 92.1482 265.907 92.1482 265.907V268.108L98.044 273.435H101.35C101.35 273.435 109.368 278.607 113.849 280.258C118.336 281.902 125.647 293.664 128.712 293.664C130.072 293.664 132.174 293.247 134.318 292.563C130.114 291.406 123.214 288.668 121.047 282.932Z" fill="#000523"/>
<path fill-rule="evenodd" clip-rule="evenodd" d="M121.605 273.687L136.134 274.202C136.134 274.202 130.215 279.869 126.628 280.04C123.04 280.212 121.605 273.687 121.605 273.687Z" fill="#F4C7A2"/>
<path fill-rule="evenodd" clip-rule="evenodd" d="M277.992 343.413C273.613 350.884 261.635 352.149 251.24 346.237C240.844 340.325 235.966 329.475 240.347 322.004C244.726 314.532 256.703 313.267 267.099 319.179C277.495 325.091 282.372 335.941 277.992 343.413Z" fill="#010723"/>
<path fill-rule="evenodd" clip-rule="evenodd" d="M256.899 318.326L257.471 323.064C257.471 323.064 263.08 324.645 266.284 328.168H270.519C270.519 328.168 269.657 322.685 266.628 319.84C266.628 319.84 262.851 317.597 256.899 318.326Z" fill="#CFD1D2"/>
<path fill-rule="evenodd" clip-rule="evenodd" d="M267.169 329.076H271.454C271.454 329.076 274.262 333.423 275.059 336.74C275.059 336.74 270.264 337.883 265.979 336.74C265.979 336.74 267.764 330.334 267.169 329.076Z" fill="#CFD1D2"/>
<path fill-rule="evenodd" clip-rule="evenodd" d="M269.611 321.812C269.611 321.812 271.507 325.341 271.965 328.336C271.965 328.336 276.053 333.6 276.549 335.432C276.549 335.432 278.354 332.643 277.599 330.625C276.843 328.606 271.648 322.226 269.611 321.812Z" fill="#CFD1D2"/>
<path fill-rule="evenodd" clip-rule="evenodd" d="M256.52 317.291C256.52 317.291 261.152 317.473 265.071 318.18C265.071 318.18 257.611 313.187 246.911 316.721L256.52 317.291Z" fill="#CFD1D2"/>
<path fill-rule="evenodd" clip-rule="evenodd" d="M255.991 318.816V323.64L248.75 326.352C248.75 326.352 245.643 323.864 245.164 322.583C244.685 321.305 246.848 318.816 246.848 318.816C246.848 318.816 249.718 317.384 255.991 318.816Z" fill="#CFD1D2"/>
<path fill-rule="evenodd" clip-rule="evenodd" d="M256.744 324.558C256.744 324.558 264.904 327.088 265.979 329.846L263.88 337.248C263.88 337.248 254.144 336.543 248.727 328.201C248.727 328.201 254.105 324.206 256.744 324.558Z" fill="#CFD1D2"/>
<path fill-rule="evenodd" clip-rule="evenodd" d="M256.899 325.444C256.899 325.444 263.4 327.714 265.071 329.644L263.213 335.432C263.213 335.432 262.099 331.431 259.871 330.438C257.642 329.445 256.899 325.444 256.899 325.444Z" fill="white"/>
<path fill-rule="evenodd" clip-rule="evenodd" d="M260.06 319.425C259.229 320.04 259.542 322.52 261.356 323.289C263.171 324.059 266.024 325.379 267.148 327.26H270.519C270.519 327.26 270.519 322.964 267.35 320.208C267.35 320.208 261.52 318.344 260.06 319.425Z" fill="white"/>
<path fill-rule="evenodd" clip-rule="evenodd" d="M270.519 321.812C270.519 321.812 273.244 325.795 273.327 328.299L276.748 333.616C276.748 333.616 278.305 326.652 270.519 321.812Z" fill="white"/>
<path fill-rule="evenodd" clip-rule="evenodd" d="M265.071 318.18C265.071 318.18 251.982 316.871 250.664 316.027C249.344 315.183 259.148 314.839 265.071 318.18Z" fill="white"/>
<path fill-rule="evenodd" clip-rule="evenodd" d="M255.083 318.801V322.72C255.083 322.72 250.967 321.546 250.566 319.324C250.167 317.102 255.083 318.801 255.083 318.801Z" fill="white"/>
<path fill-rule="evenodd" clip-rule="evenodd" d="M267.795 329.984V334.497C267.795 334.497 271.614 334.774 272.204 333.559C272.794 332.344 271.206 329.984 271.206 329.984H267.795Z" fill="white"/>
<path fill-rule="evenodd" clip-rule="evenodd" d="M38.3955 255.527C38.3955 255.527 38.8726 256.587 39.8228 258.527C40.769 260.47 42.1706 263.316 44.1694 266.811C46.1666 270.305 48.6941 274.484 51.8817 279.073C55.0798 283.65 58.8936 288.675 63.478 293.765C65.7532 296.324 68.2227 298.899 70.9034 301.416C73.6001 303.913 76.4444 306.437 79.5844 308.703C81.1383 309.855 82.7624 310.947 84.4613 311.918C86.1627 312.873 87.9278 313.772 89.7614 314.302C91.5393 314.816 93.58 314.978 95.0388 314.256C96.5186 313.57 97.3504 311.717 97.8775 309.704C98.4352 307.685 98.7407 305.467 99.632 303.281C100.078 302.197 100.737 301.107 101.715 300.297C102.682 299.47 103.924 299.047 105.109 298.913C106.314 298.791 107.461 298.866 108.637 299.116C109.781 299.377 110.878 299.752 111.935 300.204C114.052 301.103 116.025 302.265 117.977 303.453C119.928 304.647 121.828 305.926 123.711 307.234C125.604 308.532 127.48 309.857 129.351 311.198C133.109 313.854 136.869 316.53 140.655 319.153C148.242 324.372 156.001 329.317 163.956 333.451C167.944 335.489 171.985 337.329 176.097 338.746C180.23 340.175 184.396 341.404 188.44 341.836C190.449 342.046 192.427 342.007 194.121 341.543C195.832 341.076 197.115 340.137 198.38 338.666C199.028 337.939 199.679 337.086 200.567 336.234C201.431 335.384 202.642 334.582 203.952 334.221C205.265 333.859 206.535 333.86 207.69 334.021C208.401 334.128 208.895 334.265 209.443 334.419C209.975 334.575 210.48 334.749 210.976 334.928C212.941 335.661 214.742 336.501 216.503 337.337C218.26 338.179 219.963 339.023 221.626 339.871C224.952 341.558 228.152 343.168 231.259 344.621C237.454 347.561 243.29 349.863 248.621 351.278C251.287 351.97 253.824 352.438 256.187 352.636C258.549 352.848 260.729 352.776 262.678 352.552C266.587 352.068 269.46 350.705 271.256 349.585C272.164 349.029 272.823 348.536 273.254 348.191C273.687 347.843 273.91 347.663 273.91 347.663L274.151 347.921C274.151 347.921 273.943 348.125 273.54 348.521C273.135 348.915 272.512 349.482 271.633 350.146C269.886 351.457 266.99 353.114 262.907 353.953C258.838 354.809 253.714 354.658 248.106 353.521C242.479 352.407 236.379 350.257 229.968 347.515C226.766 346.133 223.481 344.598 220.106 343.011C216.737 341.45 213.269 339.691 209.734 338.415C209.297 338.265 208.859 338.122 208.431 338.006C208.02 337.891 207.541 337.786 207.259 337.747C206.432 337.637 205.637 337.679 204.99 337.874C204.338 338.067 203.775 338.405 203.166 338.988C202.56 339.559 201.935 340.349 201.201 341.18C200.467 342.012 199.592 342.888 198.546 343.602C197.504 344.321 196.314 344.852 195.113 345.181C192.695 345.83 190.306 345.743 188.035 345.48C183.484 344.895 179.191 343.505 174.957 341.956C170.687 340.379 166.533 338.421 162.5 336.21C154.418 331.795 146.882 326.32 139.539 320.702C132.163 315.133 125.072 309.174 117.417 304.368C115.504 303.178 113.534 302.092 111.502 301.246C110.485 300.831 109.45 300.474 108.404 300.276C107.388 300.09 106.28 300.056 105.277 300.2C104.268 300.352 103.334 300.721 102.632 301.367C101.927 302.011 101.446 302.894 101.109 303.858C100.433 305.804 100.24 307.975 99.7755 310.164C99.5394 311.261 99.2444 312.386 98.7012 313.486C98.1757 314.579 97.2923 315.645 96.1406 316.292C94.9953 316.95 93.7267 317.182 92.5516 317.23C91.3709 317.267 90.2095 317.141 89.1069 316.877C84.7192 315.798 81.1158 313.535 77.7694 311.251C71.1548 306.523 65.8282 301.029 61.2301 295.752C56.6885 290.412 52.9416 285.188 49.9321 280.37C48.4128 277.97 47.0838 275.668 45.916 273.508C44.7409 271.351 43.7213 269.339 42.8654 267.493C41.139 263.805 39.9429 260.842 39.1765 258.806C38.4277 256.757 38.0682 255.661 38.0682 255.661L38.3955 255.527Z" fill="#000523"/>
<mask id="mask0_0_132" style="mask-type:luminance" maskUnits="userSpaceOnUse" x="233" y="302" width="125" height="56">
<path fill-rule="evenodd" clip-rule="evenodd" d="M233.701 302.342H357.883V357.097H233.701V302.342Z" fill="white"/>
</mask>
<g mask="url(#mask0_0_132)">
<path fill-rule="evenodd" clip-rule="evenodd" d="M237.829 329.549C237.829 329.549 237.401 328.89 236.738 327.575C236.088 326.257 235.147 324.292 234.442 321.616C234.094 320.279 233.804 318.764 233.722 317.086C233.64 315.413 233.772 313.555 234.413 311.684C235.012 309.802 236.216 307.976 237.866 306.48C239.522 304.996 241.638 303.864 243.929 303.133C246.283 302.395 248.853 302.178 251.457 302.461C254.06 302.731 256.688 303.429 259.243 304.454C264.357 306.522 269.25 309.717 273.795 313.555C278.335 317.408 282.607 321.866 286.425 326.807C288.352 329.259 290.096 331.919 291.806 334.503C293.535 337.095 295.3 339.673 297.133 342.188C298.964 344.702 300.863 347.161 302.948 349.394C305.024 351.593 307.336 353.679 309.965 354.631C311.268 355.119 312.623 355.195 313.901 354.87C315.182 354.541 316.368 353.783 317.419 352.852C319.58 350.908 321.287 348.588 322.617 346.045C323.3 344.778 323.881 343.46 324.601 342.135C324.966 341.476 325.372 340.81 325.902 340.192C326.431 339.579 327.114 339.028 327.886 338.684C329.455 337.987 331.065 338.081 332.488 338.284C333.212 338.388 333.909 338.543 334.591 338.717C334.936 338.796 335.268 338.899 335.603 338.995L336.102 339.14L336.544 339.242C337.227 339.437 337.799 339.453 338.387 339.517C339.006 339.5 339.629 339.529 340.246 339.425C341.484 339.304 342.688 338.958 343.846 338.563C346.154 337.723 348.258 336.526 350.103 335.156C351.94 333.771 353.512 332.196 354.752 330.523C355.982 328.855 356.897 327.037 357.074 325.226C357.285 323.426 356.714 321.703 355.624 320.533C354.571 319.322 353.2 318.627 351.993 318.041C351.357 317.807 350.772 317.53 350.187 317.365C349.605 317.194 349.057 317.033 348.548 316.883C347.508 316.671 346.626 316.455 345.899 316.349C344.442 316.145 343.664 316.037 343.664 316.037C343.664 316.037 344.447 316.106 345.915 316.235C346.649 316.303 347.543 316.476 348.604 316.636C349.126 316.763 349.687 316.898 350.285 317.041C350.885 317.186 351.493 317.444 352.152 317.662C353.415 318.218 354.863 318.876 356.058 320.139C357.285 321.352 358.026 323.287 357.86 325.296C357.735 327.317 356.817 329.297 355.586 331.11C354.339 332.93 352.713 334.601 350.831 336.099C348.934 337.576 346.763 338.885 344.319 339.839C343.09 340.29 341.802 340.693 340.431 340.863C339.753 340.99 339.048 340.983 338.34 341.012C337.601 340.962 336.832 340.915 336.208 340.748L335.66 340.63L335.181 340.503C334.859 340.42 334.539 340.328 334.215 340.262C333.57 340.113 332.917 339.985 332.268 339.907C330.976 339.743 329.651 339.751 328.619 340.257C327.584 340.739 326.846 341.778 326.196 342.997C325.549 344.217 324.967 345.576 324.271 346.907C322.915 349.588 321.061 352.187 318.737 354.318C317.544 355.396 316.114 356.366 314.422 356.826C312.73 357.278 310.88 357.151 309.286 356.557C307.676 355.988 306.254 355.098 304.974 354.098C303.692 353.095 302.526 351.981 301.43 350.818C299.239 348.488 297.287 345.981 295.419 343.431C293.567 340.869 291.801 338.263 290.072 335.651C288.344 333.02 286.685 330.463 284.803 328.05C281.079 323.215 276.981 318.769 272.585 314.967C268.18 311.191 263.516 307.966 258.655 305.874C256.229 304.835 253.749 304.118 251.306 303.807C248.871 303.482 246.447 303.641 244.29 304.264C242.086 304.902 240.127 305.929 238.531 307.245C236.956 308.572 235.78 310.206 235.152 311.947C234.484 313.677 234.286 315.446 234.304 317.069C234.322 318.696 234.548 320.191 234.841 321.519C235.448 324.175 236.251 326.185 236.84 327.526C237.435 328.868 237.829 329.549 237.829 329.549Z" fill="#000523"/>
</g>
<path fill-rule="evenodd" clip-rule="evenodd" d="M244.16 213.315C244.16 213.315 244.166 213.404 244.176 213.578C244.178 213.683 244.182 213.812 244.187 213.966C244.184 214.103 244.179 214.26 244.175 214.441C244.127 215.154 244.066 216.209 243.613 217.543C243.171 218.855 242.303 220.515 240.66 221.83C239.034 223.158 236.773 223.928 234.372 224.151C233.776 224.167 233.166 224.183 232.54 224.2L232.067 224.21L231.602 224.168C231.291 224.139 230.975 224.11 230.656 224.081C229.362 224.013 228.086 223.716 226.738 223.459C225.452 223.211 224.119 222.871 222.755 222.6C222.083 222.474 221.399 222.345 220.703 222.215C220.006 222.096 219.291 222.008 218.567 221.9C217.842 221.795 217.118 221.762 216.376 221.685C216.008 221.661 215.646 221.666 215.277 221.654C214.908 221.644 214.535 221.631 214.183 221.669C213.453 221.695 212.754 221.798 212.122 221.964C211.506 222.146 210.99 222.407 210.689 222.729C210.41 223.057 210.234 223.513 210.186 224.167C210.184 224.336 210.164 224.495 210.172 224.674L210.209 225.227C210.219 225.411 210.262 225.615 210.287 225.809L210.329 226.106C210.328 226.091 210.374 226.486 210.358 226.359C210.358 226.427 210.362 226.317 210.36 226.552C210.355 226.721 210.328 226.893 210.284 227.054C210.247 227.169 210.204 227.274 210.153 227.379C209.951 227.776 209.685 228.017 209.486 228.165C209.378 228.246 209.275 228.311 209.187 228.359C209.089 228.416 209.001 228.461 208.92 228.496C208.583 228.648 208.291 228.736 208.018 228.803C207.468 228.94 206.97 229.006 206.472 229.06C205.484 229.163 204.526 229.189 203.563 229.195C199.726 229.187 195.834 228.829 191.813 228.361C187.796 227.881 183.669 227.255 179.447 226.501C171.008 224.984 162.18 222.984 153.207 220.31C148.723 218.967 144.203 217.452 139.711 215.676C135.222 213.896 130.749 211.868 126.458 209.369C124.314 208.119 122.221 206.74 120.239 205.178C119.247 204.386 118.299 203.577 117.368 202.658C116.502 201.773 115.623 200.929 114.776 199.957C113.075 198.069 111.493 196.079 110.202 193.84C108.915 191.613 107.957 189.115 107.662 186.478C107.554 185.161 107.556 183.824 107.787 182.524C108.014 181.23 108.364 179.961 108.846 178.765C109.798 176.362 111.097 174.184 112.37 172.059C113.64 169.931 114.917 167.842 115.869 165.638C116.838 163.439 117.468 161.149 117.518 158.769C117.534 156.493 117.009 154.088 116.309 151.834C115.599 149.56 114.663 147.358 113.586 145.246C111.441 141.013 108.801 137.086 105.851 133.528C102.917 129.952 99.6554 126.75 96.1866 123.965C92.725 121.169 89.0355 118.807 85.2132 116.988C81.3965 115.156 77.4606 113.846 73.5481 113.106C71.5938 112.731 69.6444 112.508 67.7256 112.408C66.7674 112.311 65.814 112.384 64.8711 112.363C63.9201 112.367 62.9788 112.37 62.0472 112.374C60.1864 112.372 58.332 112.219 56.5645 111.941C55.6756 111.821 54.8172 111.572 53.9581 111.396C53.5402 111.264 53.123 111.131 52.7092 111C52.2961 110.87 51.883 110.744 51.4949 110.558C51.1004 110.386 50.7098 110.216 50.3217 110.048C49.9425 109.859 49.5833 109.636 49.2162 109.433L48.6743 109.121L48.1718 108.754C47.8457 108.498 47.4882 108.289 47.1975 108.001C45.9422 106.951 44.988 105.627 44.3551 104.227C43.7262 102.82 43.4589 101.312 43.5265 99.8745C43.6159 98.435 44.0258 97.0845 44.6313 95.9069C45.8399 93.5178 47.9061 91.9669 49.8998 91.1198C51.937 90.3084 53.9387 90.1653 55.6152 90.3286C57.2965 90.5088 58.6959 90.8806 59.7838 91.2896C60.3257 91.5045 60.8104 91.6783 61.2162 91.8553C61.6132 92.0541 61.9474 92.2214 62.2163 92.3564C62.7534 92.6256 63.0312 92.7654 63.0312 92.7654C63.0312 92.7654 62.7518 92.6288 62.2115 92.3661C61.9409 92.2336 61.606 92.0703 61.2074 91.8763C60.7991 91.7034 60.3136 91.5353 59.7709 91.3267C58.6806 90.9307 57.2804 90.5767 55.6079 90.4159C53.9395 90.272 51.9579 90.4377 49.9578 91.2605C48.0011 92.118 45.9921 93.6657 44.8374 96.0128C44.2593 97.1702 43.876 98.49 43.8035 99.8874C43.7528 101.285 44.0298 102.74 44.653 104.093C45.2803 105.437 46.2127 106.708 47.4423 107.713C47.7265 107.989 48.0792 108.188 48.3973 108.432L48.8884 108.785L49.4207 109.083C49.7806 109.276 50.1317 109.49 50.5029 109.669C50.8854 109.829 51.2686 109.991 51.6551 110.153C52.0352 110.333 52.4418 110.45 52.8485 110.574C53.2551 110.698 53.6642 110.823 54.0756 110.949C54.9219 111.11 55.7641 111.346 56.641 111.455C58.3948 111.708 60.184 111.839 62.0424 111.821C62.9716 111.806 63.9105 111.793 64.8574 111.778C65.8132 111.788 66.7802 111.704 67.7529 111.793C69.7008 111.871 71.6816 112.075 73.6704 112.434C77.6514 113.141 81.6654 114.427 85.5618 116.244C89.4663 118.051 93.2387 120.407 96.7849 123.205C100.338 125.994 103.686 129.209 106.707 132.808C109.745 136.391 112.476 140.353 114.719 144.662C115.847 146.814 116.834 149.064 117.598 151.418C118.351 153.784 118.94 156.201 118.952 158.838C118.929 161.37 118.261 163.925 117.262 166.241C116.28 168.581 114.988 170.741 113.745 172.879C112.497 175.013 111.271 177.139 110.415 179.376C109.555 181.607 109.15 183.964 109.417 186.286C109.705 188.605 110.578 190.845 111.796 192.903C113.012 194.963 114.557 196.866 116.187 198.634C116.975 199.525 117.89 200.387 118.762 201.257C119.597 202.064 120.535 202.852 121.476 203.585C123.379 205.05 125.409 206.358 127.501 207.547C131.688 209.924 136.094 211.865 140.526 213.565C144.963 215.262 149.438 216.708 153.883 217.985C162.778 220.528 171.545 222.412 179.908 223.819C184.09 224.518 188.176 225.091 192.132 225.518C196.083 225.935 199.928 226.24 203.538 226.205C204.434 226.191 205.32 226.153 206.142 226.057C206.549 226.01 206.951 225.947 207.273 225.86C207.437 225.82 207.575 225.769 207.645 225.735C207.72 225.727 207.677 225.627 207.432 226.02C207.404 226.075 207.384 226.128 207.368 226.192C207.333 226.297 207.315 226.414 207.319 226.528C207.332 226.709 207.32 226.542 207.321 226.556C207.301 226.373 207.344 226.713 207.333 226.643L207.275 226.279C207.241 226.033 207.191 225.803 207.172 225.546L207.112 224.782C207.1 224.523 207.117 224.244 207.123 223.977C207.175 222.897 207.53 221.631 208.375 220.663C208.593 220.448 208.819 220.237 209.049 220.035C209.278 219.832 209.53 219.723 209.774 219.57C210.27 219.246 210.752 219.138 211.24 218.954C212.2 218.685 213.121 218.555 213.997 218.511C214.446 218.463 214.87 218.47 215.292 218.477C215.714 218.484 216.139 218.476 216.549 218.5C217.359 218.569 218.172 218.604 218.945 218.706C219.718 218.812 220.482 218.899 221.227 219.017C221.97 219.148 222.701 219.275 223.419 219.403C224.828 219.668 226.141 219.988 227.427 220.22C228.652 220.437 229.829 220.703 230.939 220.74C231.217 220.763 231.493 220.787 231.763 220.809L232.168 220.843L232.559 220.827C233.074 220.809 233.577 220.791 234.067 220.774C235.983 220.564 237.501 219.975 238.488 219.149C239.485 218.332 240.005 217.327 240.297 216.447C240.594 215.562 240.627 214.799 240.656 214.318C240.659 214.197 240.661 214.09 240.663 213.999C240.66 213.925 240.658 213.864 240.655 213.814C240.656 213.728 240.64 213.602 240.643 213.617L244.16 213.315Z" fill="#000523"/>
<path fill-rule="evenodd" clip-rule="evenodd" d="M238.384 300.928C238.384 300.928 238.083 300.985 237.516 301.094C236.95 301.204 236.127 301.377 235.086 301.63C234.044 301.867 232.797 302.23 231.382 302.666C229.982 303.145 228.412 303.708 226.785 304.487C225.163 305.273 223.476 306.247 221.853 307.468C220.244 308.706 218.761 310.25 217.547 312.044L217.089 312.72C216.95 312.954 216.832 313.202 216.702 313.443L216.318 314.174C216.265 314.281 216.161 314.454 216.152 314.506L215.989 314.914L215.827 315.325L215.726 315.691C215.663 315.933 215.582 316.164 215.548 316.435C215.438 316.956 215.393 317.49 215.37 318.027C215.33 320.19 216.084 322.394 217.238 324.379C218.375 326.384 219.903 328.205 221.557 329.845C223.237 331.466 225.018 332.959 226.85 334.27C228.686 335.576 230.521 336.771 232.325 337.81C234.133 338.837 235.867 339.781 237.508 340.582C239.144 341.388 240.67 342.083 242.03 342.689C243.399 343.27 244.593 343.787 245.59 344.179C247.586 344.969 248.727 345.42 248.727 345.42C248.727 345.42 248.429 345.346 247.87 345.208C247.313 345.062 246.484 344.883 245.452 344.576C244.414 344.291 243.161 343.912 241.735 343.441C240.314 342.957 238.711 342.396 237.001 341.683C235.281 340.994 233.451 340.158 231.557 339.188C229.661 338.219 227.704 337.099 225.772 335.788C223.843 334.476 221.9 333.017 220.118 331.297C218.347 329.574 216.675 327.644 215.387 325.416C214.127 323.194 213.244 320.625 213.319 317.978C213.352 317.321 213.41 316.666 213.56 316.027C213.612 315.709 213.728 315.379 213.829 315.056L213.986 314.576L214.162 314.172L214.336 313.768C214.427 313.544 214.492 313.474 214.571 313.32L215.023 312.52C215.176 312.255 215.316 311.985 215.48 311.73L216.008 310.994C217.399 309.033 219.129 307.444 220.914 306.206C222.71 304.971 224.558 304.078 226.298 303.383C228.038 302.681 229.699 302.25 231.165 301.892C232.641 301.566 233.937 301.347 235.01 301.219C236.077 301.07 236.929 301.024 237.502 300.981C238.077 300.945 238.384 300.928 238.384 300.928Z" fill="#000523"/>
<path fill-rule="evenodd" clip-rule="evenodd" d="M185.545 307.284C185.545 307.284 185.443 307.413 185.253 307.657C185.077 307.91 184.826 308.29 184.657 308.835C184.479 309.373 184.409 310.074 184.561 310.845C184.717 311.616 185.085 312.436 185.587 313.266C186.612 314.927 188.237 316.566 190.076 318.179C191.922 319.793 194.03 321.356 196.199 322.829C198.352 324.326 200.567 325.735 202.675 327.007C204.784 328.276 206.757 329.457 208.476 330.422C211.901 332.375 214.223 333.616 214.223 333.616C214.223 333.616 213.617 333.361 212.573 332.875C211.532 332.382 210.037 331.691 208.286 330.778C206.535 329.864 204.49 328.797 202.359 327.544C200.229 326.293 197.983 324.906 195.798 323.422C193.63 321.911 191.521 320.307 189.668 318.646C187.817 316.988 186.251 315.221 185.243 313.473C184.746 312.597 184.413 311.71 184.301 310.889C184.189 310.067 184.309 309.333 184.526 308.788C184.731 308.233 185.03 307.871 185.223 307.632C185.433 307.404 185.545 307.284 185.545 307.284Z" fill="#000523"/>
<path fill-rule="evenodd" clip-rule="evenodd" d="M263.754 314.548C263.754 314.548 264.162 314.67 264.912 314.947C265.666 315.221 266.759 315.661 268.096 316.344C270.768 317.696 274.463 319.97 278.289 323.485C280.202 325.234 282.147 327.295 283.928 329.706C285.706 332.114 287.372 334.858 288.549 337.958C289.741 341.052 290.524 344.44 290.495 348.009C290.455 349.79 290.172 351.626 289.482 353.356C288.8 355.085 287.706 356.675 286.339 357.932C283.556 360.453 279.999 361.607 276.615 362.194C273.195 362.782 269.807 362.742 266.581 362.53C263.348 362.306 260.263 361.809 257.373 361.224C254.481 360.647 251.784 359.944 249.32 359.229C244.388 357.802 240.39 356.288 237.615 355.186C236.227 354.636 235.151 354.167 234.416 353.854C233.682 353.536 233.291 353.365 233.291 353.365C233.291 353.365 234.91 353.903 237.754 354.786C240.601 355.66 244.677 356.872 249.625 358.044C254.572 359.186 260.408 360.332 266.692 360.655C269.827 360.808 273.078 360.717 276.268 360.164C279.433 359.6 282.611 358.485 284.916 356.355C286.069 355.308 286.972 354.015 287.556 352.572C288.145 351.128 288.408 349.548 288.455 347.959C288.462 347.555 288.466 347.199 288.447 346.774L288.416 346.144L288.361 345.564C288.305 344.761 288.178 343.969 288.053 343.182C287.77 341.612 287.337 340.087 286.812 338.621C285.752 335.69 284.28 333.011 282.652 330.634C281.01 328.263 279.23 326.167 277.452 324.365C273.89 320.758 270.426 318.258 267.894 316.714C266.623 315.947 265.592 315.389 264.87 315.053C264.15 314.708 263.754 314.548 263.754 314.548Z" fill="#010723"/>
<path fill-rule="evenodd" clip-rule="evenodd" d="M220.488 197.092C220.488 197.092 220.506 197.149 220.528 197.291C220.556 197.432 220.57 197.63 220.578 197.896C220.588 198.423 220.479 199.233 220.007 200.159C219.538 201.08 218.678 202.073 217.457 202.916C216.832 203.292 216.164 203.75 215.385 204.05C215 204.211 214.609 204.409 214.191 204.554C213.771 204.692 213.339 204.834 212.896 204.979C212.453 205.14 211.99 205.247 211.513 205.358C211.036 205.469 210.547 205.583 210.047 205.7C209.04 205.863 207.982 206.043 206.878 206.183C205.766 206.275 204.64 206.419 203.407 206.48C202.843 206.507 202.127 206.494 201.518 206.459C200.884 206.433 200.246 206.374 199.599 206.309C194.436 205.751 188.865 204.276 182.879 202.495C176.91 200.655 170.527 198.466 163.867 195.943C157.201 193.436 150.292 190.505 143.071 187.705C139.456 186.316 135.78 184.899 131.98 183.743C130.087 183.153 128.161 182.618 126.208 182.245C125.234 182.058 124.251 181.902 123.278 181.848C122.316 181.804 121.315 181.824 120.625 182.28L120.298 182.478L119.877 182.674C119.601 182.778 119.339 182.871 119.068 182.929C118.53 183.065 117.993 183.124 117.46 183.162C116.393 183.229 115.343 183.17 114.301 183.073C112.216 182.876 110.168 182.473 108.144 181.98C104.087 181.027 100.117 179.704 96.2289 178.177C88.4572 175.124 80.9505 171.26 74.2432 166.344C70.8916 163.89 67.7419 161.173 64.9242 158.15C62.1306 155.113 59.6383 151.755 57.9472 147.95C57.7509 147.492 57.5418 147.097 57.356 146.59L56.8076 145.07C56.5016 144.041 56.2132 143.034 56.0969 141.94C55.8086 139.806 55.9992 137.405 57.0281 135.336C58.0449 133.271 59.6456 131.713 61.1768 130.54C61.9465 129.941 62.7162 129.413 63.3921 128.908C64.0649 128.407 64.69 127.897 64.9928 127.489C65.0372 127.396 65.1018 127.308 65.1551 127.229C65.1551 127.161 65.2044 127.104 65.2165 127.046C65.1947 126.984 65.2408 126.947 65.2262 126.87C65.1947 126.788 65.2036 126.717 65.1818 126.618C65.1269 126.506 65.0792 126.392 65.0388 126.274C64.9993 126.156 64.8765 126.012 64.803 125.88C64.6682 125.611 64.4008 125.327 64.1804 125.046C63.2007 123.919 61.9408 122.859 60.6874 121.852C58.1515 119.854 55.4476 118.049 52.877 116.432C47.7236 113.168 42.672 110.688 38.0516 108.844C35.737 107.926 33.5314 107.152 31.4696 106.458C29.4061 105.766 27.484 105.158 25.7678 104.466C24.0597 103.765 22.5196 102.992 21.4237 101.944C20.3059 100.921 19.7155 99.7266 19.4369 98.7607C19.172 97.7834 19.0791 97.0255 19.0468 96.5162C19.0153 96.0077 19 95.7453 19 95.7453L19.3521 95.717C19.3521 95.717 19.3957 95.9696 19.4781 96.4587C19.5613 96.9453 19.7325 97.6635 20.0701 98.534C20.423 99.3955 21.0198 100.389 22.0697 101.189C23.0938 102.015 24.5523 102.606 26.2386 103.131C29.6387 104.146 33.9998 105.02 38.8455 106.655C43.7057 108.248 49.0295 110.575 54.5132 113.725C57.251 115.325 59.9969 117.026 62.7961 119.078C64.1884 120.117 65.5783 121.223 66.898 122.683C67.2218 123.074 67.557 123.424 67.8502 123.918C67.9971 124.162 68.1587 124.36 68.2871 124.646C68.4155 124.931 68.539 125.221 68.6545 125.513C68.7523 125.835 68.8112 126.205 68.8686 126.554C68.9122 126.912 68.8605 127.32 68.8266 127.698C68.7611 128.071 68.6214 128.425 68.4938 128.779C68.3371 129.09 68.1587 129.376 67.9769 129.667C67.2121 130.696 66.4013 131.296 65.6526 131.894C64.8951 132.481 64.1747 132.992 63.5133 133.528C62.1629 134.573 61.0735 135.693 60.4249 137C59.7772 138.299 59.6254 139.832 59.833 141.463C59.9137 142.271 60.1496 143.119 60.3644 143.942L60.7674 145.156C60.8998 145.565 61.1308 146.038 61.3077 146.476C62.7008 149.823 64.8991 152.959 67.4472 155.849C70.0154 158.738 72.972 161.38 76.1242 163.835C82.4688 168.701 89.5322 172.953 96.9832 176.387C100.719 178.074 104.553 179.574 108.476 180.699C110.44 181.237 112.427 181.686 114.421 181.931C115.417 182.05 116.418 182.101 117.393 182.053C118.374 181.987 119.303 181.853 120.067 181.353C120.561 181.021 121.183 180.887 121.716 180.818C122.267 180.75 122.801 180.746 123.328 180.768C124.382 180.813 125.404 180.964 126.413 181.143C128.428 181.514 130.388 182.016 132.331 182.523C136.203 183.588 139.994 184.723 143.702 185.901C151.113 188.268 158.238 190.642 164.932 193.019C171.629 195.388 177.918 197.712 183.785 199.62C189.633 201.556 195.063 203.16 199.903 203.964C201.127 204.153 202.255 204.275 203.388 204.305C204.509 204.326 205.648 204.26 206.713 204.244C207.78 204.182 208.797 204.077 209.773 203.988C210.725 203.813 211.669 203.745 212.515 203.524C214.246 203.184 215.691 202.601 216.89 202C218.065 201.354 218.887 200.554 219.393 199.803C219.9 199.048 220.087 198.344 220.135 197.874C220.155 197.64 220.165 197.454 220.155 197.343C220.154 197.231 220.14 197.161 220.14 197.161L220.488 197.092Z" fill="#FF5858"/>
<path fill-rule="evenodd" clip-rule="evenodd" d="M66.2104 211.969C66.2104 211.969 66.2529 211.92 66.3362 211.822C66.4348 211.712 66.5935 211.531 66.773 211.351C67.14 210.963 67.7018 210.443 68.4823 209.817C69.2693 209.202 70.2966 208.514 71.5981 207.855C72.914 207.229 74.5312 206.67 76.416 206.427C78.2993 206.158 80.4462 206.348 82.5883 206.991C83.1236 207.154 83.6822 207.298 84.1982 207.553C84.7015 207.773 85.2144 207.998 85.7361 208.228C85.9861 208.341 86.237 208.455 86.491 208.571C86.7563 208.698 86.9222 208.723 87.1441 208.809C87.3437 208.891 87.5777 208.946 87.8157 209.001C88.0497 209.065 88.2869 209.119 88.5281 209.142C90.417 209.439 92.5743 208.948 93.8429 207.375C95.1612 205.865 95.3527 203.414 94.2813 201.146C93.7684 200.007 93.0014 198.908 92.0767 197.884C91.1342 196.871 90.0347 195.939 88.8479 195.064C87.6338 194.221 86.3532 193.407 84.9684 192.704L84.4555 192.429C84.4555 192.429 84.3577 192.379 84.4451 192.421L84.3762 192.39L84.2383 192.329L83.961 192.205C83.5924 192.039 83.223 191.873 82.8511 191.706C82.1171 191.412 81.4415 191.197 80.7066 190.957C77.7094 190.104 74.4446 189.846 71.1429 190.173C67.8404 190.526 64.5171 191.474 61.326 192.886C54.9213 195.706 49.1289 200.464 44.4985 206.277C39.8336 212.087 36.3548 218.985 34.0517 226.242C32.8848 229.87 32.0041 233.597 31.4263 237.36L31.1931 238.768L31.0216 240.184C30.9174 241.12 30.7788 242.087 30.7027 242.997C30.5696 244.906 30.4102 246.814 30.4246 248.674C30.3533 250.542 30.4887 252.421 30.5584 254.282C30.7291 256.138 30.8662 257.991 31.1691 259.812C31.702 263.463 32.4962 267.037 33.5732 270.461C34.6255 273.892 35.882 277.204 37.3638 280.33C38.8175 283.468 40.4323 286.453 42.1929 289.24C45.6549 294.86 49.6306 299.712 53.5718 303.906C57.557 308.067 61.5584 311.54 65.292 314.365C69.0313 317.186 72.5029 319.354 75.4367 320.993C78.377 322.628 80.794 323.704 82.4456 324.422C84.1205 325.088 85.0133 325.444 85.0133 325.444C85.0133 325.444 84.1149 325.102 82.4304 324.459C80.7683 323.765 78.3337 322.722 75.3646 321.126C72.4019 319.526 68.891 317.404 65.0981 314.628C61.3131 311.846 57.2453 308.416 53.1767 304.29C49.1537 300.129 45.0803 295.3 41.5053 289.68C39.6878 286.892 38.0137 283.898 36.4967 280.744C34.9524 277.602 33.6309 274.264 32.513 270.797C31.3702 267.336 30.5111 263.716 29.9165 260.007C29.5823 258.157 29.4133 256.273 29.2137 254.383C29.1151 252.485 28.9509 250.583 28.9957 248.65C28.9573 246.707 29.0903 244.811 29.1961 242.902C29.2642 241.904 29.3876 240.97 29.4814 239.999L29.6352 238.555L29.8524 237.116C30.3885 233.272 31.2324 229.45 32.3744 225.716C34.6295 218.246 38.1059 211.083 42.8637 204.978C47.5878 198.873 53.567 193.79 60.3395 190.685C63.7141 189.135 67.2682 188.059 70.86 187.624C74.4502 187.213 78.0661 187.438 81.4383 188.347C82.2757 188.601 83.1677 188.888 83.9466 189.191C84.3209 189.352 84.6935 189.512 85.0645 189.673L85.3434 189.793L85.4821 189.852L85.5518 189.882L85.6768 189.943L86.2314 190.229C87.7211 190.961 89.1316 191.823 90.4827 192.737C91.8138 193.688 93.0744 194.72 94.1971 195.894C95.3038 197.084 96.2767 198.411 96.9747 199.901C97.6687 201.384 98.0918 203.05 97.9788 204.738C97.8859 206.415 97.2784 208.079 96.2246 209.342C95.723 209.995 95.0915 210.51 94.4496 210.971C93.7812 211.387 93.0856 211.746 92.3611 211.965C90.9195 212.43 89.4433 212.499 88.089 212.316C87.7444 212.282 87.4142 212.215 87.0904 212.134C86.7651 212.063 86.4429 211.989 86.1128 211.867C85.8026 211.759 85.4212 211.645 85.1824 211.533C84.9267 211.421 84.6743 211.311 84.4234 211.201C83.9402 210.997 83.4666 210.796 83.001 210.599C82.5666 210.386 82.1155 210.287 81.6811 210.161C79.9429 209.668 78.2905 209.544 76.8448 209.778C75.3967 209.988 74.1481 210.435 73.1119 210.944C72.0893 211.484 71.2679 212.047 70.6396 212.552C70.0218 213.065 69.5706 213.491 69.3021 213.787C69.1539 213.939 69.0834 214.027 69.0232 214.093C68.9535 214.176 68.9183 214.219 68.9183 214.219L66.2104 211.969Z" fill="#FF5858"/>
</svg>
