<svg width="375" height="412" viewBox="0 0 375 412" fill="none" xmlns="http://www.w3.org/2000/svg">
<path fill-rule="evenodd" clip-rule="evenodd" d="M0 0V253.312L57.4575 293.999L28.1707 278.948L128.542 346.319L113.07 329.782L210 388L131.265 314.025L281 398L252 362L332 412L273 346L375 398V269.625L345.307 241.702L375 255.188V243.945L293.737 178.958L365.332 226.5L289.763 169.537L333.832 180.375L225.878 102.675L331.125 136.5L242.828 75.855L261.457 78.1875L187.357 35.9625L204.607 51.2243L106.147 2.20425L131.333 29.0618L85.2075 0H0Z" fill="#0B2133"/>
<mask id="mask0_0_17" style="mask-type:luminance" maskUnits="userSpaceOnUse" x="0" y="0" width="375" height="412">
<path fill-rule="evenodd" clip-rule="evenodd" d="M0 0V253.312L57.4575 293.999L28.1707 278.948L128.542 346.319L113.07 329.782L210 388L131.265 314.025L281 398L252 362L332 412L273 346L375 398V269.625L345.307 241.702L375 255.188V243.945L293.737 178.958L365.332 226.5L289.763 169.537L333.832 180.375L225.878 102.675L331.125 136.5L242.828 75.855L261.457 78.1875L187.357 35.9625L204.607 51.2243L106.147 2.20425L131.333 29.0618L85.2075 0H0Z" fill="white"/>
</mask>
<g mask="url(#mask0_0_17)">
<path fill-rule="evenodd" clip-rule="evenodd" d="M223.621 217.274L223.664 219.394C223.695 220.9 223.025 222.267 221.97 223.182C221.146 223.882 220.081 224.322 218.91 224.346L181.782 225.098C180.61 225.122 179.528 224.725 178.678 224.059C177.571 223.188 176.861 221.849 176.83 220.343L176.82 219.84L187.981 208.759L198.806 214.818L211.279 198.981L223.621 217.274Z" fill="white"/>
<path fill-rule="evenodd" clip-rule="evenodd" d="M192.231 194.487C192.269 196.349 193.808 197.828 195.67 197.79C197.531 197.752 199.01 196.212 198.972 194.351C198.935 192.489 197.395 191.011 195.533 191.049C193.672 191.086 192.193 192.626 192.231 194.487Z" fill="white"/>
<mask id="mask1_0_17" style="mask-type:luminance" maskUnits="userSpaceOnUse" x="93" y="328" width="30" height="29">
<path fill-rule="evenodd" clip-rule="evenodd" d="M93.5913 328.016H122.797V356.179H93.5913V328.016Z" fill="white"/>
</mask>
<g mask="url(#mask1_0_17)">
<path fill-rule="evenodd" clip-rule="evenodd" d="M122.797 356.179C120.952 356.087 119.126 355.979 117.337 355.841C116.743 355.795 116.149 355.759 115.556 355.704C113.272 355.539 111.035 355.339 108.834 355.101C106.259 354.845 103.748 354.553 101.283 354.216C98.9079 353.896 96.5794 353.54 94.2956 353.138C94.0856 353.11 93.8667 353.074 93.6567 353.037C93.6567 352.197 93.6477 351.23 93.6387 350.17C93.5933 345.211 93.5561 338.308 93.6477 333.623V333.614C93.6663 332.746 93.6842 331.952 93.7117 331.266L102.287 330.18L106.332 329.668H106.341L109.337 329.295L113.263 328.801L119.382 328.016L119.729 330.883V330.893L122.797 356.179Z" fill="#E8B485"/>
</g>
<mask id="mask2_0_17" style="mask-type:luminance" maskUnits="userSpaceOnUse" x="112" y="328" width="11" height="29">
<path fill-rule="evenodd" clip-rule="evenodd" d="M112.192 328.016H122.797V356.179H112.192V328.016Z" fill="white"/>
</mask>
<g mask="url(#mask2_0_17)">
<path fill-rule="evenodd" clip-rule="evenodd" d="M122.797 356.179C120.952 356.087 119.126 355.979 117.337 355.841C116.743 355.795 116.149 355.759 115.556 355.704C111.501 348.481 111.848 339.951 112.834 331.979C112.962 330.938 113.108 329.897 113.255 328.875C113.255 328.855 113.263 328.828 113.263 328.801L119.382 328.016L119.729 330.883V330.893L122.797 356.179Z" fill="#F4C7A2"/>
</g>
<path fill-rule="evenodd" clip-rule="evenodd" d="M109.337 329.294C109.291 329.714 109.255 330.061 109.218 330.344C109.19 330.536 109.163 330.728 109.127 330.938C109.054 331.394 108.972 331.888 108.862 332.426C107.894 337.513 105.931 346.051 108.835 355.101C106.259 354.845 103.748 354.553 101.282 354.216C98.9077 353.896 96.5791 353.54 94.296 353.138C94.086 353.11 93.867 353.074 93.657 353.037C93.657 352.197 93.6474 351.23 93.6385 350.17C93.593 345.211 93.5565 338.308 93.6474 333.623V333.613C93.666 332.747 93.6846 331.951 93.7121 331.266L102.286 330.18L106.333 329.668H106.341L109.337 329.294Z" fill="#B57F57"/>
<path fill-rule="evenodd" clip-rule="evenodd" d="M123.842 329.483C122.556 330.504 118.026 331.337 112.842 331.979C111.546 332.137 110.208 332.285 108.86 332.422C101.768 333.149 94.6771 333.549 93.5919 333.613C91.8958 333.718 93.2551 304.922 96.5319 289.665C97.3219 285.998 98.2176 283.111 99.2183 281.605C103.581 275.019 110.587 279.603 112.61 281.151C112.979 281.425 113.179 281.605 113.179 281.605C113.78 283.037 114.623 285.451 115.582 288.453C116.024 289.833 116.488 291.329 116.962 292.91C121.145 306.871 126.255 327.544 123.842 329.483Z" fill="#FF5858"/>
<path fill-rule="evenodd" clip-rule="evenodd" d="M123.842 329.483C122.556 330.504 118.026 331.337 112.842 331.979C113.358 327.786 114.054 323.74 114.391 320.115C115.477 308.483 115.792 295.839 116.962 292.91C121.145 306.871 126.255 327.544 123.842 329.483Z" fill="#FF5858"/>
<path fill-rule="evenodd" clip-rule="evenodd" d="M115.581 288.453C111.631 294.922 109.892 325.173 109.218 330.347C109.134 330.947 109.017 331.642 108.86 332.422C101.768 333.149 94.6775 333.549 93.5917 333.613C91.8957 333.718 93.2549 304.922 96.5317 289.665C99.3872 284.059 102.137 280.53 103.77 280.161C106.352 279.57 109.871 280.013 112.61 281.151C112.98 281.425 113.179 281.605 113.179 281.605C113.78 283.037 114.623 285.45 115.581 288.453Z" fill="#B23D3D"/>
<path fill-rule="evenodd" clip-rule="evenodd" d="M102.378 327.842L102.286 330.18L102.168 333.02V333.029L102.159 333.057V333.066L101.282 354.216C98.9076 353.895 96.579 353.54 94.2959 353.138C94.0859 353.11 93.8669 353.074 93.6569 353.037C93.365 352.983 93.0724 352.937 92.7804 352.882C90.5978 352.499 88.4607 352.078 86.3786 351.631C80.2144 350.334 74.4611 348.782 69.0921 347.001C69.0645 342.527 69.0549 337.321 69.1279 333.559C69.1465 332.71 69.1644 331.934 69.1919 331.267L78.0958 330.344L81.6933 329.97L91.5838 328.956L92.8624 328.819H92.8714L102.378 327.842Z" fill="#E8B485"/>
<path fill-rule="evenodd" clip-rule="evenodd" d="M102.378 327.842L102.286 330.18L102.168 333.02V333.029L102.159 333.057V333.066L101.282 354.216C98.9076 353.895 96.579 353.54 94.2959 353.138C94.0494 352.142 93.8304 351.156 93.639 350.17C92.4609 344.545 91.8028 338.947 91.6203 333.677C91.5838 332.673 91.5652 331.696 91.5652 330.719C91.5652 330.125 91.5749 329.541 91.5838 328.956L92.8624 328.819H92.8713L102.378 327.842Z" fill="#F4C7A2"/>
<path fill-rule="evenodd" clip-rule="evenodd" d="M86.3785 351.631C80.2142 350.335 74.4616 348.782 69.0919 347.001C69.0644 342.526 69.0548 337.321 69.1284 333.558C69.1463 332.709 69.1643 331.933 69.1918 331.266L78.0957 330.344C80.5068 332.189 82.1689 333.732 82.1689 333.732C82.6068 339.294 84.8176 346.051 86.3785 351.631Z" fill="#B57F57"/>
<path fill-rule="evenodd" clip-rule="evenodd" d="M111.82 282.489C111.704 283.396 111.567 284.48 111.42 285.724C111.325 286.535 111.23 287.399 111.136 288.326C110.756 291.698 110.324 295.787 109.871 300.096C108.395 314.035 106.667 330.262 105.751 331.989C105.182 333.054 98.9659 333.518 91.6217 333.676C88.5555 333.728 85.2992 333.739 82.1697 333.728C74.3524 333.707 67.366 333.508 66.2917 333.508C63.7102 333.497 60.591 289.507 67.0817 280.551C72.9822 272.427 103.001 277.179 110.335 281.277C111.083 281.689 111.588 282.1 111.82 282.489Z" fill="#FF5858"/>
<path fill-rule="evenodd" clip-rule="evenodd" d="M111.82 287.674C111.609 287.905 111.378 288.115 111.136 288.327C104.697 293.932 89.0818 293.205 83.7505 300.317C78.2931 307.598 82.0647 333.044 82.1697 333.729C74.3524 333.707 67.366 333.507 66.2917 333.507C63.7102 333.496 60.591 289.507 67.0817 280.551C72.9822 272.427 103.001 277.179 110.335 281.278C110.808 283.027 111.177 284.586 111.42 285.724C111.683 286.936 111.82 287.674 111.82 287.674Z" fill="#B23D3D"/>
<path fill-rule="evenodd" clip-rule="evenodd" d="M109.871 300.096C108.395 314.035 106.667 330.262 105.751 331.99C105.182 333.054 98.966 333.518 91.6217 333.676C91.1364 319.904 93.9605 308.441 99.8194 304.921C103.633 302.636 107.036 301.107 109.871 300.096Z" fill="#FF5858"/>
<path fill-rule="evenodd" clip-rule="evenodd" d="M118.068 287.083C113.527 289.76 105.751 287.926 98.6495 285.756C93.3284 284.143 88.387 282.331 85.447 282.1C84.6563 282.036 83.6876 282.194 82.5813 282.51C74.0673 284.944 57.8199 296.819 60.2438 289.781C62.9834 281.826 65.4592 258.54 71.4859 235.138C73.1511 228.658 75.1532 222.894 77.218 217.605C79.22 218.406 82.9494 218.806 83.1818 218.806C83.4552 218.806 86.28 209.207 92.1273 206.562C92.5384 206.373 92.9808 206.215 93.4443 206.089C95.6154 205.489 98.2807 205.478 100.873 205.836C103.444 206.194 105.941 206.921 107.827 207.785C108.143 208.923 108.448 210.104 108.722 211.346C109.713 215.824 110.367 221.04 110.239 227.372C110.219 229.237 110.113 231.208 109.934 233.294C107.838 257.665 126.013 282.374 118.068 287.083Z" fill="#0448D8"/>
<path fill-rule="evenodd" clip-rule="evenodd" d="M107.827 207.785C105.941 206.921 103.433 206.195 100.873 205.836C99.5662 205.657 98.2384 205.572 96.9745 205.604C95.1831 205.646 93.4967 205.941 92.1273 206.553C86.2799 209.208 83.4558 218.796 83.1818 218.796C82.95 218.796 79.2199 218.406 77.2179 217.605C82.571 203.782 88.3024 193.255 89.2827 181.844C89.2827 181.844 100.409 178.514 101.905 188.883C102.127 190.453 102.516 192.002 103.001 193.593C103.243 194.373 103.507 195.152 103.791 195.953C105.013 199.43 106.562 203.212 107.827 207.785Z" fill="#E8B485"/>
<path fill-rule="evenodd" clip-rule="evenodd" d="M93.7813 198.366C95.6463 200.715 94.4977 203.507 96.9742 205.604C95.1828 205.646 93.497 205.941 92.1276 206.553C86.2796 209.208 85.2341 216.502 83.1814 218.796C81.5117 220.662 79.2202 218.406 77.2182 217.605C82.5706 203.782 88.3021 193.255 89.283 181.844C89.283 181.844 100.409 178.514 101.905 188.883C102.126 190.453 102.517 192.002 103.001 193.593C100.788 194.636 95.5093 194.783 92.9701 193.593C89.9462 192.17 91.527 195.542 93.7813 198.366Z" fill="#B57F57"/>
<path fill-rule="evenodd" clip-rule="evenodd" d="M107.827 207.785C105.941 206.921 103.433 206.195 100.873 205.836C99.7033 204.445 98.8184 202.653 98.7019 200.884C98.5124 197.965 101.979 199.198 103.791 195.953C105.013 199.43 106.562 203.212 107.827 207.785Z" fill="#F4C7A2"/>
<path fill-rule="evenodd" clip-rule="evenodd" d="M108.723 211.346C107.005 211.199 105.783 208.976 103.77 208.123C102.78 207.701 101.747 206.879 100.873 205.836C103.444 206.194 105.941 206.921 107.827 207.785C108.143 208.923 108.448 210.104 108.723 211.346Z" fill="#484689"/>
<path fill-rule="evenodd" clip-rule="evenodd" d="M86.2478 234.801C86.8273 242.493 92.1803 250.753 91.2104 252.903C90.2519 255.052 82.0863 260.489 80.0631 269.708C79.2724 273.301 80.7795 277.917 82.5812 282.511C74.0678 284.944 57.8204 296.819 60.2437 289.781C62.9833 281.826 65.4591 258.54 71.4857 235.138C73.151 228.658 75.1531 222.894 77.2178 217.605C79.2199 218.406 82.9499 218.807 83.1817 218.807C83.4557 218.807 86.2799 209.207 92.1278 206.563C92.5382 206.373 92.9813 206.215 93.4442 206.089C91.5266 208.733 96.4367 208.206 95.5621 209.524C94.6882 210.84 95.6677 211.346 95.6677 211.346C95.6677 211.346 85.6684 227.12 86.2478 234.801Z" fill="#023297"/>
<path fill-rule="evenodd" clip-rule="evenodd" d="M118.068 287.083C113.527 289.76 105.751 287.926 98.6495 285.756C101.505 275.188 97.1641 269.487 98.3755 260.953C99.8192 250.658 106.152 245.98 107.595 241.333C108.238 239.279 109.081 233.337 110.239 227.372C110.219 229.237 110.113 231.208 109.934 233.294C107.838 257.665 126.013 282.374 118.068 287.083Z" fill="#0448D8"/>
<path fill-rule="evenodd" clip-rule="evenodd" d="M107.542 233.252C107.521 233.631 107.501 234.021 107.469 234.421C106.868 243.947 103.749 257.307 97.3533 257.307C94.2667 257.307 91.9375 254.725 90.2197 250.996C89.9246 250.353 89.6512 249.678 89.3983 248.983C86.1106 240.228 85.4153 227.246 85.5837 223.791C85.5837 223.791 91.4848 222.705 97.1427 222.757C102.01 222.8 106.7 223.685 107.289 226.814C107.373 227.267 107.447 227.794 107.501 228.395C107.606 229.733 107.627 231.398 107.542 233.252Z" fill="#E8B485"/>
<path fill-rule="evenodd" clip-rule="evenodd" d="M107.542 233.252C107.395 236.655 106.899 240.691 106.025 244.473C104.698 250.226 102.495 255.4 99.2599 256.875C98.66 257.16 98.0281 257.307 97.3533 257.307C94.2667 257.307 91.9375 254.725 90.2197 250.996C92.0431 250.047 94.3083 249.299 96.5735 248.783C101.916 247.561 105.108 239.268 107.542 233.252Z" fill="#F4C7A2"/>
<path fill-rule="evenodd" clip-rule="evenodd" d="M107.542 233.252C107.521 233.631 107.501 234.021 107.469 234.421C95.7725 237.751 89.2574 232.419 88.9315 232.746C88.6364 233.042 87.3962 240.016 89.3983 248.983C86.1106 240.228 85.4153 227.246 85.5837 223.791C85.5837 223.791 91.4848 222.705 97.1427 222.757C101.02 224.423 104.95 226.456 107.501 228.395C107.606 229.733 107.627 231.398 107.542 233.252Z" fill="#B57F57"/>
<path fill-rule="evenodd" clip-rule="evenodd" d="M106.025 244.473C104.697 250.226 102.495 255.4 99.2605 256.875C100.946 251.27 104.044 247.613 106.025 244.473Z" fill="#FFC9C0"/>
<path fill-rule="evenodd" clip-rule="evenodd" d="M114.475 175.417C114.043 176.091 113.601 176.534 113.201 176.892C112.199 177.819 111.483 178.304 111.82 180.959C111.852 181.244 111.904 181.57 111.968 181.918C112.674 185.817 110.439 192.644 103.822 193.73C103.812 193.73 103.812 193.73 103.802 193.74C102.306 193.982 100.578 193.93 98.6076 193.487C94.9723 192.665 92.3172 191.57 90.3677 190.337C86.5845 187.934 85.4576 184.994 85.0255 182.466C84.941 181.971 84.8571 181.212 84.7835 180.275C84.7303 179.6 84.6778 178.842 84.6362 178.009C84.5088 175.48 84.4774 172.298 84.6567 169.168C84.7726 167.104 84.9839 165.059 85.3097 163.226L87.4917 161.561L95.0882 158.506L102.738 158.073L107.668 158.432C108.154 158.97 108.554 159.57 108.87 160.255C108.943 160.423 109.028 160.602 109.091 160.782C109.323 161.382 109.471 161.951 109.586 162.52C109.692 163.068 109.744 163.606 109.787 164.111C109.987 166.998 109.396 169.295 111.325 170.223C114.064 171.539 116.119 172.877 114.475 175.417Z" fill="#E8B485"/>
<path fill-rule="evenodd" clip-rule="evenodd" d="M86.4285 171.81C89.0624 170.186 88.3166 166.498 89.5458 165.619C90.7751 164.742 93.2772 165.055 99.2923 165.864C105.307 166.673 109.39 163.858 109.39 163.858C109.39 163.858 98.3261 160.135 91.6093 161.67C84.8925 163.205 83.4872 162.809 83.3995 164.742C83.3118 166.673 86.4285 171.81 86.4285 171.81Z" fill="#F4C7A2"/>
<path fill-rule="evenodd" clip-rule="evenodd" d="M114.475 175.417C114.043 176.091 113.601 176.534 113.201 176.892C113.358 176.481 113.537 175.964 113.706 175.364C114.107 173.942 113.653 172.73 111.409 171.813C109.323 170.949 109.766 167.641 109.787 164.111C109.987 166.998 109.396 169.295 111.325 170.223C114.064 171.539 116.119 172.877 114.475 175.417Z" fill="#F4C7A2"/>
<path fill-rule="evenodd" clip-rule="evenodd" d="M103.823 193.73C108.417 192.349 111.093 185.817 111.82 180.959C111.852 181.244 111.904 181.57 111.968 181.918C112.673 185.817 110.44 192.644 103.823 193.73Z" fill="#F4C7A2"/>
<path fill-rule="evenodd" clip-rule="evenodd" d="M90.3675 190.336C86.585 187.934 85.4575 184.994 85.0253 182.466C84.9408 181.971 84.8576 181.212 84.7833 180.274C85.1521 180.053 85.5209 179.926 85.8583 179.926C88.0498 179.926 87.2169 181.644 87.2169 181.644C87.8917 185.953 89.5141 188.988 90.3675 190.336Z" fill="#F4C7A2"/>
<path fill-rule="evenodd" clip-rule="evenodd" d="M109.944 163.848C109.944 163.848 109.691 164.038 109.207 164.312C109.207 164.312 109.197 164.312 109.186 164.322C108.796 164.522 108.269 164.786 107.606 165.028C105.614 165.755 102.443 166.377 98.4283 165.28C93.7916 164.038 88.6709 163.985 87.765 165.038C86.8488 166.092 89.3983 169.906 85.4684 171.971C85.4684 171.971 88.0915 185.774 85.0785 186.501C85.0049 186.523 84.9204 186.533 84.8359 186.543C82.5387 186.786 81.2115 177.967 80.6 172.319C80.3158 169.685 80.189 167.736 80.189 167.736L83.1501 164.606L85.5837 162.762L94.0656 159.37L102.611 158.896L106.773 159.191L108.111 159.285L109.386 159.37L109.702 161.888L109.944 163.848Z" fill="#F9AE40"/>
<path fill-rule="evenodd" clip-rule="evenodd" d="M112.81 159.211C112.779 161.045 111.788 162.868 110.25 163.826C109.934 164.027 109.586 164.185 109.207 164.312C109.207 164.312 109.196 164.312 109.186 164.322C109.112 164.343 109.038 164.364 108.965 164.385C108.965 164.385 108.512 164.554 107.742 164.722C105.983 165.122 102.569 165.576 99.1656 164.206C94.2767 162.225 85.7108 164.827 85.7108 164.827L85.8479 166.451C85.0469 167.904 84.2255 169.389 83.066 170.591C82.8554 170.802 82.6447 171.002 82.4123 171.192C81.8649 171.656 81.2535 172.045 80.5998 172.319C79.989 172.583 79.3359 172.74 78.6618 172.751C76.9754 172.803 75.216 171.792 74.7313 170.201C74.278 168.726 75.248 166.957 76.702 166.629C75.764 166.629 74.8363 165.755 74.8894 164.785C74.9528 163.9 75.8376 163.184 76.702 163.173C75.7006 162.742 75.3005 161.077 76.0483 160.107C76.9126 158.959 78.5772 158.748 80.021 158.937C81.4436 159.128 82.8554 159.623 84.3087 159.58C84.4143 159.58 84.5411 159.57 84.6468 159.559C86.7749 159.338 88.6502 157.958 90.1887 156.451C90.473 156.177 90.7361 155.903 91.0101 155.619C92.3278 154.26 93.6134 152.869 95.2358 151.942C96.8901 151.004 98.7968 150.614 100.714 150.593C101.61 150.572 102.506 150.646 103.38 150.772C105.667 151.109 107.953 151.858 109.765 153.28C111.568 154.723 112.853 156.915 112.81 159.211Z" fill="#F9AE40"/>
<path fill-rule="evenodd" clip-rule="evenodd" d="M76.6204 162.1C76.614 162.119 76.744 162.177 76.9994 162.269C77.2523 162.367 77.6352 162.48 78.1339 162.614C79.1308 162.869 80.613 163.134 82.4665 163.16C84.3155 163.181 86.5403 162.93 88.874 162.156C91.2224 161.391 93.5299 159.99 95.9743 158.695C98.4098 157.397 100.913 156.424 103.285 156.399C105.647 156.341 107.754 157.231 108.921 158.545C110.102 159.873 110.396 161.388 110.35 162.358C110.306 163.354 110.016 163.864 110.076 163.885C110.094 163.894 110.167 163.772 110.288 163.528C110.386 163.277 110.535 162.895 110.584 162.376C110.704 161.36 110.469 159.736 109.243 158.27C108.022 156.808 105.775 155.818 103.281 155.849C100.765 155.846 98.1576 156.856 95.692 158.167C93.2174 159.481 90.9574 160.87 88.6935 161.635C86.4366 162.416 84.2739 162.706 82.4646 162.738C78.8216 162.786 76.6447 161.971 76.6204 162.1Z" fill="#FFDC15"/>
<path fill-rule="evenodd" clip-rule="evenodd" d="M76.5479 170C76.4941 170.046 76.8091 170.529 77.5716 171.049C78.3194 171.565 79.5653 172.069 81.0014 172.015C82.4381 171.958 83.6411 171.361 84.3467 170.787C85.0657 170.211 85.341 169.705 85.2846 169.663C85.2136 169.602 84.8301 169.994 84.1002 170.443C83.3799 170.894 82.2672 171.368 80.9784 171.419C79.6896 171.467 78.5429 171.08 77.7893 170.686C77.0274 170.295 76.6138 169.933 76.5479 170Z" fill="#FFDC15"/>
<path fill-rule="evenodd" clip-rule="evenodd" d="M77.5489 166.915C77.4266 167.015 78.0995 167.889 79.3422 168.338C80.5817 168.796 81.667 168.564 81.6394 168.409C81.6285 168.236 80.6483 168.189 79.5503 167.779C78.4465 167.386 77.6699 166.791 77.5489 166.915Z" fill="#FFDC15"/>
<path fill-rule="evenodd" clip-rule="evenodd" d="M113.595 166.969C113.672 166.968 113.757 166.662 113.671 166.169C113.591 165.681 113.302 165.008 112.719 164.477C112.135 163.947 111.432 163.72 110.935 163.683C110.43 163.642 110.131 163.752 110.136 163.828C110.129 163.995 111.331 164.019 112.311 164.917C113.299 165.807 113.427 166.989 113.595 166.969Z" fill="#FFDC15"/>
<path fill-rule="evenodd" clip-rule="evenodd" d="M114.1 158.27C113.922 158.244 113.691 159.828 112.572 161.369C111.482 162.93 110.053 163.676 110.138 163.834C110.17 163.986 111.861 163.423 113.064 161.712C114.287 160.016 114.255 158.249 114.1 158.27Z" fill="#FFDC15"/>
<path fill-rule="evenodd" clip-rule="evenodd" d="M89.1664 184.415C87.5229 184.689 85.542 183.867 84.0246 182.349C82.6551 180.97 81.6647 179.01 81.6436 176.776C81.6115 173.109 84.33 172.435 86.996 173.7C87.7438 174.047 88.482 174.553 89.1664 175.185C89.1664 175.185 92.2959 183.889 89.1664 184.415Z" fill="#E8B485"/>
<path fill-rule="evenodd" clip-rule="evenodd" d="M82.4126 176.987C82.3492 178.494 83.234 180.822 84.0247 182.35C82.6552 180.97 81.6648 179.01 81.6437 176.776C81.6116 173.109 84.3301 172.436 86.9961 173.699C83.5721 173.552 82.4971 174.953 82.4126 176.987Z" fill="#F4C7A2"/>
<path fill-rule="evenodd" clip-rule="evenodd" d="M112.81 159.211C112.779 161.045 111.788 162.868 110.25 163.826C109.934 164.027 109.586 164.185 109.207 164.312C109.207 164.312 109.196 164.312 109.186 164.322C108.796 164.522 108.269 164.785 107.605 165.028C107.658 164.922 107.701 164.827 107.742 164.722C108.374 163.1 107.785 160.75 106.773 159.191C106.658 159.012 106.53 158.843 106.404 158.685C104.866 156.798 108.385 155.914 107.489 154.639C106.658 153.448 103.38 153.565 100.714 150.593C101.61 150.572 102.506 150.646 103.38 150.772C105.667 151.109 107.953 151.858 109.765 153.28C111.568 154.723 112.853 156.915 112.81 159.211Z" fill="#F9AE40"/>
</g>
<mask id="mask3_0_17" style="mask-type:luminance" maskUnits="userSpaceOnUse" x="231" y="218" width="90" height="106">
<path fill-rule="evenodd" clip-rule="evenodd" d="M231.487 218.8H320.019V323.14H231.487V218.8Z" fill="white"/>
</mask>
<g mask="url(#mask3_0_17)">
<path fill-rule="evenodd" clip-rule="evenodd" d="M285.51 292.055C281.395 295.12 284.682 293.457 293.304 297.124C278.401 310.155 263.549 318.241 248.727 322.399C247.777 322.658 246.83 322.909 245.878 323.14C241.968 322.617 237.333 321.75 232.434 320.316C232.118 320.224 231.801 320.133 231.487 320.032C231.645 319.628 231.799 319.204 231.965 318.765C234.013 313.398 236.787 305.724 237.788 294.391C237.932 292.738 238.103 291.222 238.3 289.834C239.065 284.256 240.188 280.757 241.575 278.63C244.817 273.612 249.48 276.116 254.326 276.761C255.536 276.916 256.72 276.495 257.853 275.64C260.596 273.609 263.137 269.115 265.571 264.145C266.704 261.867 267.796 259.475 268.884 257.185C269.818 255.198 270.736 253.282 271.656 251.563C272.318 250.31 272.967 249.156 273.626 248.164C279.474 239.303 279.749 245.617 286.104 249.971C292.45 254.323 294.034 214.051 312.793 219.267C331.565 224.477 307.942 253.618 307.017 258.296C306.097 262.995 311.916 257.81 317.978 264.749C324.027 271.703 290.583 288.282 285.51 292.055Z" fill="#FFDC15"/>
</g>
<path fill-rule="evenodd" clip-rule="evenodd" d="M268.421 277.984C265.664 284.154 256.594 294.496 259.673 298.137C262.732 301.784 267.994 303.714 255.851 313.054C253.643 314.751 251.814 316.4 250.286 317.961C249.932 318.309 249.606 318.653 249.291 318.989C248.713 318.958 248.108 318.922 247.486 318.875C243.553 318.591 238.873 318.007 233.896 316.874C233.701 316.379 233.526 315.869 233.334 315.355C228.204 300.83 223.72 278.078 231.127 281.689C234.37 283.284 236.494 284.878 237.894 286.092C240.41 288.269 240.588 289.205 240.778 286.617C240.896 284.961 240.533 279.958 240.48 274.709C240.404 267.263 240.937 259.325 244.342 259.835C250.149 260.709 249.351 265.621 251.562 263.517C253.628 261.556 260.414 241.512 268.856 245.859C269.408 246.155 269.981 246.555 270.552 247.067C272.424 248.73 273.053 250.677 272.882 252.713C272.716 255.046 271.52 257.504 270.008 259.863C266.397 265.493 260.937 270.547 263.005 271.807C263.054 271.843 263.122 271.882 263.191 271.912C267.703 273.837 271.187 271.816 268.421 277.984Z" fill="white"/>
<path fill-rule="evenodd" clip-rule="evenodd" d="M226.129 223.548C226.129 223.548 225.701 224.208 225.037 225.522C224.387 226.84 223.446 228.805 222.741 231.482C222.393 232.818 222.103 234.334 222.022 236.012C221.94 237.685 222.071 239.542 222.712 241.413C223.312 243.295 224.516 245.121 226.166 246.618C227.821 248.102 229.937 249.233 232.229 249.964C234.583 250.702 237.152 250.919 239.757 250.636C242.359 250.366 244.987 249.668 247.542 248.644C252.656 246.576 257.549 243.381 262.094 239.542C266.634 235.689 270.907 231.232 274.724 226.29C276.652 223.839 278.395 221.178 280.106 218.594C281.835 216.003 283.6 213.424 285.432 210.909C287.263 208.396 289.163 205.936 291.247 203.703C293.323 201.504 295.636 199.419 298.264 198.467C299.568 197.979 300.923 197.902 302.2 198.228C303.481 198.557 304.668 199.315 305.719 200.245C307.879 202.189 309.586 204.51 310.917 207.053C311.599 208.319 312.18 209.637 312.901 210.962C313.266 211.621 313.672 212.287 314.202 212.905C314.73 213.519 315.413 214.07 316.185 214.413C317.754 215.111 319.365 215.016 320.788 214.813C321.511 214.71 322.208 214.554 322.89 214.381C323.235 214.301 323.568 214.198 323.902 214.103L324.402 213.958L324.843 213.856C325.526 213.66 326.099 213.644 326.686 213.581C327.306 213.598 327.928 213.568 328.545 213.672C329.783 213.794 330.988 214.14 332.145 214.534C334.454 215.375 336.558 216.572 338.403 217.942C340.239 219.326 341.812 220.901 343.051 222.575C344.281 224.242 345.196 226.06 345.374 227.872C345.585 229.671 345.014 231.395 343.924 232.565C342.87 233.776 341.499 234.47 340.292 235.056C339.656 235.29 339.071 235.568 338.486 235.733C337.904 235.904 337.356 236.065 336.848 236.214C335.807 236.426 334.926 236.643 334.199 236.748C332.741 236.952 331.964 237.061 331.964 237.061C331.964 237.061 332.746 236.992 334.215 236.862C334.948 236.794 335.843 236.622 336.903 236.461C337.425 236.335 337.986 236.2 338.585 236.057C339.185 235.911 339.792 235.653 340.452 235.435C341.714 234.88 343.163 234.222 344.357 232.959C345.585 231.745 346.326 229.81 346.16 227.802C346.034 225.78 345.117 223.801 343.886 221.988C342.639 220.167 341.013 218.497 339.13 216.999C337.233 215.521 335.062 214.213 332.619 213.258C331.39 212.807 330.102 212.404 328.731 212.234C328.052 212.107 327.347 212.114 326.639 212.085C325.901 212.135 325.131 212.183 324.508 212.35L323.959 212.467L323.48 212.594C323.159 212.678 322.838 212.77 322.514 212.835C321.869 212.984 321.216 213.113 320.567 213.19C319.275 213.354 317.95 213.346 316.919 212.84C315.884 212.359 315.145 211.319 314.495 210.1C313.848 208.88 313.267 207.522 312.571 206.19C311.214 203.51 309.361 200.911 307.037 198.779C305.844 197.701 304.414 196.732 302.721 196.272C301.03 195.82 299.179 195.947 297.585 196.54C295.975 197.109 294.553 197.999 293.273 199C291.992 200.002 290.825 201.117 289.73 202.279C287.539 204.609 285.587 207.116 283.719 209.666C281.867 212.228 280.1 214.834 278.372 217.447C276.644 220.077 274.984 222.634 273.103 225.048C269.379 229.882 265.281 234.328 260.884 238.13C256.48 241.906 251.816 245.131 246.955 247.224C244.529 248.263 242.048 248.979 239.605 249.29C237.17 249.616 234.746 249.457 232.59 248.833C230.386 248.195 228.426 247.168 226.83 245.852C225.255 244.525 224.079 242.892 223.451 241.15C222.783 239.421 222.585 237.651 222.604 236.028C222.621 234.401 222.848 232.906 223.14 231.578C223.747 228.922 224.551 226.912 225.139 225.571C225.735 224.229 226.129 223.548 226.129 223.548Z" fill="#0448D8"/>
<path fill-rule="evenodd" clip-rule="evenodd" d="M231.61 349.858L145.56 351.204C135.211 351.366 126.689 343.109 126.522 332.76L123.064 117.034C122.898 106.679 131.16 98.1506 141.515 97.9886L227.565 96.6428C237.915 96.4808 246.436 104.737 246.602 115.087L250.06 330.813C250.227 341.169 241.965 349.696 231.61 349.858Z" fill="#0448D8"/>
<path fill-rule="evenodd" clip-rule="evenodd" d="M230.488 186.092C230.488 186.092 230.506 186.149 230.528 186.291C230.556 186.432 230.57 186.63 230.578 186.896C230.588 187.423 230.479 188.233 230.007 189.159C229.538 190.08 228.678 191.073 227.457 191.916C226.832 192.292 226.164 192.75 225.385 193.05C225 193.211 224.609 193.409 224.191 193.554C223.771 193.692 223.339 193.834 222.896 193.979C222.453 194.14 221.99 194.247 221.513 194.358C221.036 194.469 220.547 194.583 220.047 194.7C219.04 194.863 217.982 195.043 216.878 195.183C215.766 195.275 214.64 195.419 213.407 195.48C212.843 195.507 212.127 195.494 211.518 195.459C210.884 195.433 210.246 195.374 209.599 195.309C204.436 194.751 198.865 193.276 192.879 191.495C186.91 189.655 180.527 187.466 173.867 184.943C167.201 182.436 160.292 179.505 153.071 176.705C149.456 175.316 145.78 173.899 141.98 172.743C140.087 172.153 138.161 171.618 136.208 171.245C135.234 171.058 134.251 170.902 133.278 170.848C132.316 170.804 131.315 170.824 130.625 171.28L130.298 171.478L129.877 171.674C129.601 171.778 129.339 171.871 129.068 171.929C128.53 172.065 127.993 172.124 127.46 172.162C126.393 172.229 125.343 172.17 124.301 172.073C122.216 171.876 120.168 171.473 118.144 170.98C114.087 170.027 110.117 168.704 106.229 167.177C98.4572 164.124 90.9505 160.26 84.2432 155.344C80.8916 152.89 77.7419 150.173 74.9242 147.15C72.1306 144.113 69.6383 140.755 67.9472 136.95C67.7509 136.492 67.5418 136.097 67.356 135.59L66.8076 134.07C66.5016 133.041 66.2132 132.034 66.0969 130.94C65.8086 128.806 65.9992 126.405 67.0281 124.336C68.0449 122.271 69.6456 120.713 71.1768 119.54C71.9465 118.941 72.7162 118.413 73.3921 117.908C74.0649 117.407 74.69 116.897 74.9928 116.489C75.0372 116.396 75.1018 116.308 75.1551 116.229C75.1551 116.161 75.2044 116.104 75.2165 116.046C75.1947 115.984 75.2408 115.947 75.2262 115.87C75.1947 115.788 75.2036 115.717 75.1818 115.618C75.1269 115.506 75.0792 115.392 75.0388 115.274C74.9993 115.156 74.8765 115.012 74.803 114.88C74.6682 114.611 74.4008 114.327 74.1804 114.046C73.2007 112.919 71.9408 111.859 70.6874 110.852C68.1515 108.854 65.4476 107.049 62.877 105.432C57.7236 102.168 52.672 99.6884 48.0516 97.8439C45.737 96.9257 43.5314 96.1516 41.4696 95.4577C39.4061 94.7662 37.484 94.1581 35.7678 93.4658C34.0597 92.7646 32.5196 91.9922 31.4237 90.9436C30.3059 89.9209 29.7155 88.7266 29.4369 87.7607C29.172 86.7834 29.0791 86.0255 29.0468 85.5162C29.0153 85.0077 29 84.7453 29 84.7453L29.3521 84.717C29.3521 84.717 29.3957 84.9696 29.4781 85.4587C29.5613 85.9453 29.7325 86.6635 30.0701 87.534C30.423 88.3955 31.0198 89.389 32.0697 90.189C33.0938 91.0149 34.5523 91.6059 36.2386 92.1314C39.6387 93.146 43.9998 94.0205 48.8455 95.6552C53.7057 97.2479 59.0295 99.575 64.5132 102.725C67.251 104.325 69.9969 106.026 72.7961 108.078C74.1884 109.117 75.5783 110.223 76.898 111.683C77.2218 112.074 77.557 112.424 77.8502 112.918C77.9971 113.162 78.1587 113.36 78.2871 113.646C78.4155 113.931 78.539 114.221 78.6545 114.513C78.7523 114.835 78.8112 115.205 78.8686 115.554C78.9122 115.912 78.8605 116.32 78.8266 116.698C78.7611 117.071 78.6214 117.425 78.4938 117.779C78.3371 118.09 78.1587 118.376 77.9769 118.667C77.2121 119.696 76.4013 120.296 75.6526 120.894C74.8951 121.481 74.1747 121.992 73.5133 122.528C72.1629 123.573 71.0735 124.693 70.4249 126C69.7772 127.299 69.6254 128.832 69.833 130.463C69.9137 131.271 70.1496 132.119 70.3644 132.942L70.7674 134.156C70.8998 134.565 71.1308 135.038 71.3077 135.476C72.7008 138.823 74.8991 141.959 77.4472 144.849C80.0154 147.738 82.972 150.38 86.1242 152.835C92.4688 157.701 99.5322 161.953 106.983 165.387C110.719 167.074 114.553 168.574 118.476 169.699C120.44 170.237 122.427 170.686 124.421 170.931C125.417 171.05 126.418 171.101 127.393 171.053C128.374 170.987 129.303 170.853 130.067 170.353C130.561 170.021 131.183 169.887 131.716 169.818C132.267 169.75 132.801 169.746 133.328 169.768C134.382 169.813 135.404 169.964 136.413 170.143C138.428 170.514 140.388 171.016 142.331 171.523C146.203 172.588 149.994 173.723 153.702 174.901C161.113 177.268 168.238 179.642 174.932 182.019C181.629 184.388 187.918 186.712 193.785 188.62C199.633 190.556 205.063 192.16 209.903 192.964C211.127 193.153 212.255 193.275 213.388 193.305C214.509 193.326 215.648 193.26 216.713 193.244C217.78 193.182 218.797 193.077 219.773 192.988C220.725 192.813 221.669 192.745 222.515 192.524C224.246 192.184 225.691 191.601 226.89 191C228.065 190.354 228.887 189.554 229.393 188.803C229.9 188.048 230.087 187.344 230.135 186.874C230.155 186.64 230.165 186.454 230.155 186.343C230.154 186.231 230.14 186.161 230.14 186.161L230.488 186.092Z" fill="#0448D8"/>
<path fill-rule="evenodd" clip-rule="evenodd" d="M227.146 104.211L210.462 104.472C208.225 104.508 206.441 106.432 206.48 108.771L206.528 111.797C206.565 114.136 204.781 116.06 202.545 116.096L170.024 116.604C167.787 116.639 165.943 114.771 165.905 112.432L165.857 109.406C165.82 107.067 163.975 105.199 161.737 105.234L155.87 105.326L141.268 105.555C134.016 105.668 128.23 111.641 128.347 118.893L131.722 329.457C131.839 336.706 137.806 342.488 145.055 342.375L230.932 341.032C238.184 340.918 243.97 334.946 243.854 327.694L240.478 117.128C240.362 109.88 234.393 104.098 227.146 104.211Z" fill="white"/>
<path fill-rule="evenodd" clip-rule="evenodd" d="M177.478 220.101L142.573 220.808C142.309 220.813 142.084 220.234 142.069 219.513C142.055 218.792 142.257 218.203 142.52 218.198L177.425 217.491C177.688 217.486 177.914 218.066 177.928 218.786C177.943 219.507 177.741 220.095 177.478 220.101Z" fill="#D6D6D6"/>
<path fill-rule="evenodd" clip-rule="evenodd" d="M177.656 228.925C177.92 228.92 178.146 229.499 178.16 230.22C178.175 230.941 177.973 231.53 177.709 231.535L142.805 232.242C142.541 232.247 142.316 231.668 142.301 230.947C142.286 230.226 142.488 229.638 142.752 229.632L177.656 228.925Z" fill="#D6D6D6"/>
<path fill-rule="evenodd" clip-rule="evenodd" d="M177.888 240.359C178.152 240.354 178.378 240.934 178.392 241.655C178.406 242.375 178.204 242.963 177.941 242.969L143.036 243.676C142.772 243.682 142.547 243.102 142.532 242.381C142.518 241.66 142.72 241.072 142.984 241.066L177.888 240.359Z" fill="#D6D6D6"/>
<path fill-rule="evenodd" clip-rule="evenodd" d="M178.12 251.794C178.383 251.788 178.609 252.368 178.624 253.088C178.638 253.809 178.436 254.398 178.172 254.403L143.268 255.111C143.004 255.115 142.779 254.536 142.764 253.815C142.749 253.095 142.951 252.506 143.215 252.501L178.12 251.794Z" fill="#D6D6D6"/>
<path fill-rule="evenodd" clip-rule="evenodd" d="M178.351 263.227C178.615 263.222 178.841 263.802 178.855 264.523C178.87 265.243 178.667 265.832 178.404 265.837L143.499 266.545C143.236 266.55 143.011 265.97 142.996 265.249C142.981 264.528 143.183 263.94 143.447 263.934L178.351 263.227Z" fill="#D6D6D6"/>
<path fill-rule="evenodd" clip-rule="evenodd" d="M230.79 273.604C231.444 273.591 231.984 274.164 231.999 274.885C232.013 275.605 231.496 276.201 230.843 276.214L144.436 277.965C143.783 277.977 143.242 277.404 143.228 276.684C143.213 275.963 143.731 275.368 144.383 275.354L230.79 273.604Z" fill="#D6D6D6"/>
<path fill-rule="evenodd" clip-rule="evenodd" d="M231.022 285.038C231.675 285.025 232.216 285.599 232.231 286.319C232.245 287.04 231.728 287.634 231.075 287.648L144.668 289.399C144.015 289.412 143.474 288.839 143.459 288.118C143.445 287.397 143.962 286.802 144.615 286.789L231.022 285.038Z" fill="#D6D6D6"/>
<path fill-rule="evenodd" clip-rule="evenodd" d="M231.254 296.472C231.907 296.459 232.447 297.032 232.463 297.753C232.477 298.474 231.959 299.069 231.306 299.082L144.9 300.833C144.247 300.846 143.706 300.273 143.691 299.552C143.676 298.831 144.194 298.236 144.846 298.222L231.254 296.472Z" fill="#D6D6D6"/>
<path fill-rule="evenodd" clip-rule="evenodd" d="M231.485 307.906C232.138 307.893 232.679 308.467 232.694 309.188C232.708 309.908 232.191 310.503 231.538 310.516L145.131 312.267C144.478 312.28 143.937 311.707 143.922 310.986C143.908 310.266 144.425 309.67 145.078 309.657L231.485 307.906Z" fill="#D6D6D6"/>
<path fill-rule="evenodd" clip-rule="evenodd" d="M231.77 321.95L145.363 323.701C144.71 323.714 144.169 323.14 144.154 322.42C144.139 321.699 144.657 321.105 145.31 321.091L231.717 319.34C232.369 319.327 232.91 319.901 232.926 320.621C232.94 321.342 232.423 321.936 231.77 321.95Z" fill="#D6D6D6"/>
<path fill-rule="evenodd" clip-rule="evenodd" d="M225.287 147.515L197.177 148.085C197.098 148.087 197.033 148.024 197.031 147.946L196.941 143.47C196.94 143.392 197.001 143.327 197.079 143.326L225.191 142.756C225.269 142.754 225.334 142.816 225.335 142.895L225.426 147.371C225.428 147.449 225.366 147.514 225.287 147.515Z" fill="#D6D6D6"/>
<path fill-rule="evenodd" clip-rule="evenodd" d="M234.956 158.064L187.943 159.016C187.865 159.018 187.8 158.956 187.799 158.877L187.708 154.401C187.706 154.323 187.768 154.258 187.847 154.257L234.859 153.303C234.937 153.302 235.002 153.364 235.004 153.442L235.095 157.918C235.096 157.997 235.034 158.062 234.956 158.064Z" fill="#D6D6D6"/>
<mask id="mask4_0_17" style="mask-type:luminance" maskUnits="userSpaceOnUse" x="134" y="130" width="48" height="48">
<path fill-rule="evenodd" clip-rule="evenodd" d="M175.464 130.478L140.441 131.187C139.137 131.213 137.945 131.677 137.002 132.436C135.668 133.504 134.829 135.153 134.867 136.992L135.576 172.016C135.615 173.897 136.556 175.548 137.99 176.559C138.801 177.136 139.775 177.498 140.825 177.579C141.008 177.597 141.191 177.601 141.382 177.597L176.405 176.887C176.596 176.883 176.778 176.872 176.961 176.847C178.525 176.668 179.893 175.842 180.806 174.658C181.563 173.669 182.006 172.422 181.979 171.075L181.27 136.051C181.238 134.484 180.572 133.077 179.519 132.066C178.498 131.079 177.103 130.476 175.581 130.476C175.542 130.476 175.503 130.476 175.464 130.478Z" fill="white"/>
</mask>
<g mask="url(#mask4_0_17)">
<path fill-rule="evenodd" clip-rule="evenodd" d="M175.464 130.478L140.441 131.187C139.137 131.213 137.945 131.677 137.002 132.436C135.668 133.504 134.829 135.153 134.867 136.992L135.576 172.016C135.615 173.897 136.556 175.548 137.99 176.559C138.801 177.136 139.775 177.498 140.825 177.579C141.008 177.597 141.191 177.601 141.382 177.597L176.405 176.887C176.596 176.883 176.778 176.872 176.961 176.847C178.525 176.668 179.893 175.842 180.806 174.658C181.563 173.669 182.006 172.422 181.979 171.075L181.27 136.051C181.238 134.484 180.572 133.077 179.519 132.066C178.498 131.079 177.103 130.476 175.581 130.476C175.542 130.476 175.503 130.476 175.464 130.478Z" fill="url(#paint0_linear_0_17)"/>
</g>
<path fill-rule="evenodd" clip-rule="evenodd" d="M149.409 149.097C149.509 154.017 153.578 157.925 158.498 157.826C163.419 157.726 167.327 153.656 167.227 148.736C167.128 143.815 163.058 139.907 158.137 140.008C153.217 140.107 149.31 144.176 149.409 149.097Z" fill="white"/>
<path fill-rule="evenodd" clip-rule="evenodd" d="M176.986 175.578C176.995 176.004 176.989 176.428 176.961 176.846C176.778 176.872 176.596 176.883 176.405 176.887L141.382 177.597C141.191 177.6 141.008 177.597 140.825 177.579C140.779 177.162 140.756 176.738 140.747 176.313C140.545 166.303 148.493 158.026 158.496 157.823C168.506 157.62 176.784 165.569 176.986 175.578Z" fill="white"/>
<path fill-rule="evenodd" clip-rule="evenodd" d="M225.18 204.183L147.177 205.764C147.028 205.767 146.904 205.648 146.901 205.499L146.548 188.048C146.545 187.898 146.663 187.775 146.812 187.772L224.816 186.192C224.964 186.189 225.088 186.307 225.091 186.457L225.445 203.908C225.448 204.057 225.329 204.18 225.18 204.183Z" fill="#FF5858"/>
<path fill-rule="evenodd" clip-rule="evenodd" d="M167.129 196.251C165.947 194.741 164.731 192.605 163.79 190.389C163.508 189.728 162.43 189.75 162.175 190.421C161.323 192.674 160.194 194.859 159.075 196.415C158.849 196.729 158.855 197.146 159.091 197.451C159.328 197.759 159.732 197.874 160.095 197.732L161.397 197.23L161.437 199.236C161.449 199.841 161.952 200.324 162.558 200.312L163.806 200.287C164.412 200.275 164.896 199.771 164.883 199.166L164.842 197.161L166.165 197.609C166.529 197.732 166.93 197.604 167.156 197.288C167.378 196.974 167.368 196.557 167.129 196.251Z" fill="#FF4F00"/>
<path fill-rule="evenodd" clip-rule="evenodd" d="M167.114 195.51C165.932 194 164.716 191.864 163.775 189.648C163.493 188.987 162.415 189.009 162.159 189.68C161.308 191.933 160.179 194.118 159.06 195.674C158.834 195.988 158.84 196.405 159.076 196.71C159.313 197.018 159.717 197.133 160.08 196.991L161.382 196.489L161.422 198.495C161.434 199.1 161.937 199.583 162.543 199.571L163.791 199.546C164.397 199.534 164.88 199.03 164.868 198.425L164.827 196.42L166.149 196.868C166.514 196.991 166.915 196.863 167.14 196.547C167.363 196.232 167.352 195.816 167.114 195.51Z" fill="white"/>
<path fill-rule="evenodd" clip-rule="evenodd" d="M211.424 194.82L178.735 195.482C178.35 195.49 178.032 195.184 178.023 194.799C178.016 194.414 178.322 194.095 178.707 194.087L211.396 193.425C211.782 193.418 212.1 193.723 212.107 194.109C212.115 194.494 211.81 194.812 211.424 194.82Z" fill="white"/>
<mask id="mask5_0_17" style="mask-type:luminance" maskUnits="userSpaceOnUse" x="184" y="216" width="48" height="49">
<path fill-rule="evenodd" clip-rule="evenodd" d="M225.96 216.511L188.833 217.263C186.964 217.301 185.354 218.394 184.577 219.959C184.241 220.636 184.062 221.407 184.078 222.215L184.83 259.343C184.86 260.849 185.571 262.187 186.678 263.059C187.528 263.725 188.611 264.122 189.782 264.098L226.91 263.346C228.081 263.322 229.146 262.882 229.97 262.182C231.025 261.267 231.695 259.9 231.665 258.393L230.912 221.267C230.883 219.858 230.259 218.615 229.292 217.741C228.435 216.971 227.306 216.51 226.062 216.51C226.028 216.51 225.994 216.511 225.96 216.511Z" fill="white"/>
</mask>
<g mask="url(#mask5_0_17)">
<path fill-rule="evenodd" clip-rule="evenodd" d="M225.96 216.511L188.833 217.263C186.964 217.301 185.354 218.394 184.577 219.959C184.241 220.636 184.062 221.407 184.078 222.215L184.83 259.343C184.86 260.849 185.571 262.187 186.678 263.059C187.528 263.725 188.611 264.122 189.782 264.098L226.91 263.346C228.081 263.322 229.146 262.882 229.97 262.182C231.025 261.267 231.695 259.9 231.665 258.393L230.912 221.267C230.883 219.858 230.259 218.615 229.292 217.741C228.435 216.971 227.306 216.51 226.062 216.51C226.028 216.51 225.994 216.511 225.96 216.511Z" fill="url(#paint1_linear_0_17)"/>
</g>
<path fill-rule="evenodd" clip-rule="evenodd" d="M153.292 176.049C153.25 176.966 151.67 179.22 149.784 181.823C147.739 184.647 145.347 187.871 144.231 190.2C144.073 190.526 143.946 190.832 143.841 191.116C143.546 191.949 142.756 194.014 141.533 196.796C140.996 198.028 140.364 199.398 139.657 200.873C139.657 200.873 139.647 200.873 139.647 200.884C137.118 206.141 133.546 212.685 129.163 218.564C129.153 218.586 129.142 218.606 129.121 218.627C127.562 220.714 125.897 222.726 124.137 224.56L124.126 224.57C119.375 229.533 113.948 233.252 108.006 234.032C87.9866 236.666 80.7166 225.528 88.8605 215.445C90.8734 212.959 93.476 211.505 96.384 210.62C98.1223 210.093 99.9668 209.755 101.863 209.513C109.713 208.533 118.49 209.155 124.158 204.119C127.372 201.263 130.175 197.238 132.578 192.897V192.876C133.368 191.443 134.116 189.978 134.811 188.514C135.138 187.839 135.454 187.155 135.759 186.48C136.149 185.627 136.507 184.784 136.865 183.952C138.709 179.6 140.142 175.511 141.186 172.519C141.449 171.782 141.681 171.107 141.891 170.507C142.06 170.022 142.239 169.548 142.418 169.085C144.789 162.804 147.392 158.548 148.613 159.644C150.278 159.296 144.315 171.719 144.968 172.509C145.632 173.299 153.355 174.005 153.292 176.049Z" fill="#E8B485"/>
<path fill-rule="evenodd" clip-rule="evenodd" d="M124.127 224.57C119.375 229.533 113.949 233.252 108.006 234.032C87.9868 236.666 80.7162 225.529 88.8607 215.445C90.8736 212.959 93.4762 211.505 96.3842 210.62C94.5083 218.88 100.746 220.208 108.512 219.248C116.54 218.259 121.134 217.268 120.091 220.955C119.048 224.644 115.266 229.849 123.284 225.044C123.568 224.876 123.853 224.707 124.127 224.57Z" fill="#B57F57"/>
<path fill-rule="evenodd" clip-rule="evenodd" d="M132.577 192.897C132.124 194.994 130.954 198.576 128.004 203.634C123.2 211.863 107.099 215.593 101.863 209.513C109.713 208.533 118.489 209.155 124.159 204.118C127.372 201.263 130.174 197.238 132.577 192.897Z" fill="#F4C7A2"/>
<path fill-rule="evenodd" clip-rule="evenodd" d="M139.647 200.884C137.119 206.141 133.547 212.685 129.164 218.564C132.303 213.422 136.56 206.184 139.647 200.884Z" fill="#FFC9C0"/>
<path fill-rule="evenodd" clip-rule="evenodd" d="M141.186 172.519C141.396 172.993 141.618 173.762 141.618 174.88C141.618 176.85 138.614 182.708 136.865 183.951C138.709 179.6 140.142 175.512 141.186 172.519Z" fill="#F4C7A2"/>
<path fill-rule="evenodd" clip-rule="evenodd" d="M151.143 177.292C152.154 173.784 144.294 174.405 144.178 173.172C144.072 171.94 147.939 162.636 147.582 161.762C147.286 161.013 145.221 164.364 142.418 169.085C144.789 162.805 147.392 158.548 148.614 159.644C150.278 159.296 144.315 171.719 144.968 172.509C145.632 173.299 153.355 174.005 153.292 176.049C153.25 176.966 151.669 179.221 149.783 181.823C150.142 180.369 150.732 178.715 151.143 177.292Z" fill="#F4C7A2"/>
<path fill-rule="evenodd" clip-rule="evenodd" d="M136.134 184.923C135.796 184.951 134.916 187.624 134.916 187.82C134.916 188.018 143.312 191.739 143.773 191.805C144.233 191.871 145.419 189.368 145.386 189.105C145.353 188.841 136.529 184.891 136.134 184.923Z" fill="#F3F3F3"/>
<path fill-rule="evenodd" clip-rule="evenodd" d="M143.674 187.36C143.628 188.114 142.073 191.051 141.814 191.411C141.555 191.772 136.499 189.497 136.318 189.102C136.136 188.707 137.254 184.781 138.25 184.717C139.247 184.654 143.697 186.976 143.674 187.36Z" fill="white"/>
<path fill-rule="evenodd" clip-rule="evenodd" d="M364.954 313.247C364.954 313.247 364.963 313.276 364.974 313.347C364.989 313.419 364.996 313.519 365 313.653C365.005 313.92 364.949 314.329 364.711 314.797C364.473 315.263 364.038 315.765 363.42 316.191C363.104 316.381 362.766 316.612 362.372 316.764C362.177 316.846 361.979 316.946 361.768 317.019C361.556 317.089 361.337 317.16 361.113 317.234C360.888 317.315 360.654 317.369 360.413 317.425C360.171 317.481 359.924 317.539 359.671 317.598C359.161 317.681 358.626 317.772 358.067 317.842C357.505 317.889 356.935 317.962 356.311 317.993C356.026 318.007 355.664 318 355.355 317.982C355.034 317.969 354.711 317.939 354.384 317.906C351.771 317.624 348.953 316.878 345.924 315.978C342.903 315.048 339.674 313.942 336.303 312.666C332.93 311.399 329.435 309.917 325.78 308.501C323.952 307.799 322.091 307.083 320.169 306.499C319.21 306.201 318.236 305.93 317.248 305.741C316.755 305.647 316.257 305.568 315.765 305.541C315.279 305.519 314.772 305.529 314.423 305.759L314.258 305.859L314.045 305.958C313.905 306.011 313.772 306.058 313.635 306.087C313.363 306.156 313.091 306.186 312.821 306.205C312.282 306.239 311.75 306.209 311.223 306.16C310.168 306.061 309.131 305.857 308.108 305.607C306.055 305.126 304.046 304.457 302.078 303.685C298.146 302.142 294.347 300.189 290.953 297.703C289.257 296.463 287.664 295.089 286.238 293.561C284.824 292.025 283.563 290.328 282.708 288.405C282.608 288.173 282.502 287.974 282.408 287.717L282.131 286.949C281.976 286.428 281.83 285.92 281.771 285.366C281.625 284.288 281.722 283.074 282.242 282.028C282.757 280.984 283.567 280.197 284.342 279.604C284.731 279.301 285.121 279.034 285.463 278.779C285.803 278.525 286.119 278.268 286.273 278.061C286.295 278.014 286.328 277.97 286.355 277.93C286.355 277.895 286.38 277.867 286.386 277.837C286.375 277.806 286.398 277.787 286.391 277.748C286.375 277.707 286.379 277.671 286.368 277.621C286.34 277.564 286.316 277.507 286.296 277.447C286.276 277.387 286.214 277.315 286.177 277.248C286.108 277.112 285.973 276.968 285.862 276.826C285.366 276.257 284.728 275.721 284.094 275.212C282.811 274.202 281.443 273.289 280.142 272.472C277.534 270.822 274.978 269.568 272.64 268.636C271.469 268.172 270.353 267.78 269.31 267.43C268.266 267.08 267.293 266.773 266.425 266.423C265.56 266.068 264.781 265.678 264.226 265.148C263.661 264.631 263.362 264.027 263.221 263.539C263.087 263.045 263.04 262.661 263.024 262.404C263.008 262.147 263 262.014 263 262.014L263.178 262C263.178 262 263.2 262.128 263.242 262.375C263.284 262.621 263.371 262.984 263.541 263.424C263.72 263.86 264.022 264.362 264.553 264.766C265.071 265.184 265.81 265.482 266.663 265.748C268.383 266.261 270.59 266.703 273.042 267.529C275.501 268.335 278.195 269.511 280.97 271.103C282.355 271.912 283.745 272.772 285.161 273.81C285.866 274.335 286.569 274.894 287.237 275.632C287.401 275.83 287.57 276.006 287.718 276.256C287.793 276.379 287.875 276.48 287.94 276.624C288.005 276.768 288.067 276.915 288.125 277.062C288.175 277.225 288.205 277.412 288.234 277.589C288.256 277.77 288.23 277.976 288.213 278.167C288.179 278.356 288.109 278.534 288.044 278.714C287.965 278.87 287.875 279.015 287.783 279.162C287.396 279.683 286.985 279.986 286.607 280.288C286.223 280.585 285.859 280.843 285.524 281.114C284.841 281.642 284.289 282.209 283.961 282.869C283.634 283.526 283.557 284.301 283.662 285.125C283.703 285.534 283.822 285.963 283.931 286.379L284.135 286.993C284.202 287.199 284.318 287.438 284.408 287.66C285.113 289.351 286.225 290.937 287.515 292.398C288.814 293.858 290.31 295.194 291.905 296.435C295.116 298.895 298.69 301.044 302.46 302.78C304.35 303.633 306.29 304.391 308.275 304.96C309.269 305.232 310.275 305.459 311.284 305.583C311.788 305.643 312.294 305.669 312.788 305.644C313.284 305.611 313.754 305.543 314.141 305.291C314.39 305.123 314.705 305.055 314.975 305.02C315.254 304.986 315.524 304.984 315.79 304.995C316.324 305.018 316.841 305.094 317.351 305.184C318.371 305.372 319.363 305.626 320.346 305.882C322.305 306.42 324.223 306.994 326.1 307.589C329.85 308.786 333.455 309.986 336.842 311.188C340.231 312.385 343.414 313.56 346.382 314.525C349.341 315.504 352.089 316.314 354.538 316.721C355.157 316.816 355.728 316.878 356.301 316.893C356.869 316.904 357.445 316.871 357.984 316.862C358.524 316.831 359.039 316.778 359.532 316.733C360.014 316.644 360.492 316.61 360.92 316.499C361.796 316.327 362.527 316.032 363.133 315.728C363.728 315.401 364.144 314.997 364.4 314.617C364.657 314.236 364.751 313.88 364.775 313.642C364.786 313.524 364.79 313.43 364.786 313.374C364.785 313.317 364.778 313.282 364.778 313.282L364.954 313.247Z" fill="#FFDC15"/>
<defs>
<linearGradient id="paint0_linear_0_17" x1="141.874" y1="140.066" x2="141.874" y2="173.169" gradientUnits="userSpaceOnUse">
<stop stop-color="#BFD1FF"/>
<stop offset="1" stop-color="#9EC3FB"/>
</linearGradient>
<linearGradient id="paint1_linear_0_17" x1="189.282" y1="223.568" x2="189.739" y2="260.324" gradientUnits="userSpaceOnUse">
<stop stop-color="#BFD1FF"/>
<stop offset="1" stop-color="#9EC3FB"/>
</linearGradient>
</defs>
</svg>
