<svg width="375" height="412" viewBox="0 0 375 412" fill="none" xmlns="http://www.w3.org/2000/svg">
<path fill-rule="evenodd" clip-rule="evenodd" d="M0 0V253.312L57.4575 293.999L28.1707 278.948L128.542 346.319L113.07 329.782L210 388L131.265 314.025L281 398L252 362L332 412L273 346L375 398V269.625L345.307 241.702L375 255.188V243.945L293.737 178.958L365.332 226.5L289.763 169.537L333.832 180.375L225.878 102.675L331.125 136.5L242.828 75.855L261.457 78.1875L187.357 35.9625L204.607 51.2243L106.147 2.20425L131.333 29.0618L85.2075 0H0Z" fill="#0B2133"/>
<mask id="mask0_0_284" style="mask-type:luminance" maskUnits="userSpaceOnUse" x="0" y="0" width="375" height="412">
<path fill-rule="evenodd" clip-rule="evenodd" d="M0 0V253.312L57.4575 293.999L28.1707 278.948L128.542 346.319L113.07 329.782L210 388L131.265 314.025L281 398L252 362L332 412L273 346L375 398V269.625L345.307 241.702L375 255.188V243.945L293.737 178.958L365.332 226.5L289.763 169.537L333.832 180.375L225.878 102.675L331.125 136.5L242.828 75.855L261.457 78.1875L187.357 35.9625L204.607 51.2243L106.147 2.20425L131.333 29.0618L85.2075 0H0Z" fill="white"/>
</mask>
<g mask="url(#mask0_0_284)">
</g>
<path fill-rule="evenodd" clip-rule="evenodd" d="M296.11 117.635L300.033 128.525C300.199 128.984 299.915 129.457 299.432 129.619L294.021 131.428C293.608 131.566 293.077 131.367 292.911 130.907L288.988 120.018C284.79 119.872 280.883 117.326 279.407 113.228C277.51 107.962 280.412 102.183 285.896 100.348C291.376 98.515 297.371 101.318 299.268 106.585C300.744 110.682 299.315 115.014 296.11 117.635ZM263.436 78.7724C261.049 72.1488 264.693 64.8899 271.567 62.5913C278.436 60.2927 285.967 63.8137 288.353 70.4366L290.714 76.9897L265.796 85.324L263.436 78.7724ZM306.44 71.7288L300.996 73.5497L298.636 66.9973C294.282 54.9117 280.53 48.4943 267.999 52.6858C255.461 56.8796 248.809 70.1231 253.162 82.2087L255.523 88.7611L250.062 90.588C245.815 92.0077 243.533 96.5359 245.01 100.633L260.371 143.272C261.87 147.43 266.575 149.631 270.822 148.21L327.2 129.352C331.516 127.908 333.798 123.369 332.3 119.211L316.939 76.5728C315.463 72.4757 310.756 70.2851 306.44 71.7288Z" fill="#F0C20C"/>
<path fill-rule="evenodd" clip-rule="evenodd" d="M244.369 316.58C242.437 313.02 246.959 309.209 251.124 308.506C255.286 307.802 260.003 308.34 263.319 305.857C267.745 302.54 267.52 295.308 272.424 292.66C276.361 290.535 281.574 292.562 285.744 290.883C290.926 288.796 292.384 281.968 297.467 279.675C301.521 277.848 306.819 279.913 308.888 283.681C310.957 287.451 310.006 292.322 307.137 295.59C304.894 298.144 301.572 299.935 300.179 302.983C297.998 307.756 301.441 313.542 299.434 318.382C295.725 327.323 278.204 324.632 275.16 333.795C274.484 335.835 274.769 338.034 274.593 340.166C274.068 346.506 269.342 352.045 263.505 355.204C257.668 358.361 250.84 359.458 244.13 359.901C241.39 360.083 238.501 360.136 236.057 358.947C233.758 357.828 232.158 355.746 230.911 353.605C222.853 339.78 219.532 321.765 244.369 316.58Z" fill="white"/>
<mask id="mask1_0_284" style="mask-type:luminance" maskUnits="userSpaceOnUse" x="44" y="235" width="72" height="125">
<path fill-rule="evenodd" clip-rule="evenodd" d="M44 235.858H115.939V359.46H44V235.858Z" fill="white"/>
</mask>
<g mask="url(#mask1_0_284)">
<path fill-rule="evenodd" clip-rule="evenodd" d="M104.043 309.433C108.366 306.727 105.963 300.079 101.964 296.955C97.9646 293.834 92.5864 291.726 90.6253 287.183C88.0067 281.117 92.8451 273.515 89.2902 267.892C86.4365 263.379 79.5821 262.579 76.1974 258.41C71.9907 253.229 74.7739 245.1 70.8024 239.755C67.6373 235.494 60.6664 234.685 56.0621 237.537C51.4589 240.388 49.3779 246.136 50.3635 251.261C51.1352 255.27 53.5421 259.076 53.0941 263.127C52.3907 269.471 45.0357 273.694 44.1027 280.012C42.3802 291.681 62.7989 298.778 60.224 310.304C59.6506 312.871 57.9493 315.06 56.7834 317.439C53.3136 324.516 54.839 333.127 59.0648 339.826C63.2883 346.525 69.884 351.584 76.7642 355.877C79.5754 357.631 82.6262 359.334 85.9907 359.453C89.157 359.566 92.1877 358.251 94.8813 356.672C112.269 346.48 127.265 329.114 104.043 309.433Z" fill="#FFDC15"/>
</g>
<path fill-rule="evenodd" clip-rule="evenodd" d="M228.58 323.911C234.602 321.446 240.024 316.887 244.52 312.483C256.646 300.604 264.162 285.092 268.116 269.123C271.693 254.673 272.492 239.731 271.744 224.942C271.68 223.69 269.621 223.682 269.685 224.942C271.364 258.168 264.414 298.94 233.082 319.164C231.331 320.294 229.492 321.423 227.539 322.222C226.326 322.72 227.374 324.404 228.58 323.911Z" fill="#FFDC15"/>
<path fill-rule="evenodd" clip-rule="evenodd" d="M269 262.996C269 262.996 270.984 252.64 286 251C286 251 280.523 263.256 269 262.996Z" fill="#FFDC15"/>
<path fill-rule="evenodd" clip-rule="evenodd" d="M264 279.545C264 279.545 268.67 269.516 284 271.188C284 271.188 275.367 282.362 264 279.545Z" fill="#FFDC15"/>
<path fill-rule="evenodd" clip-rule="evenodd" d="M257 293.434C257 293.434 263.802 284.611 278 289.45C278 289.45 267.157 298.563 257 293.434Z" fill="#FFDC15"/>
<path fill-rule="evenodd" clip-rule="evenodd" d="M271 246.996C271 246.996 272.984 236.64 288 235C288 235 282.523 247.256 271 246.996Z" fill="#FFDC15"/>
<path fill-rule="evenodd" clip-rule="evenodd" d="M271.588 228C271.588 228 262.883 220.796 269.454 208C269.454 208 278.062 219.007 271.588 228Z" fill="#FFDC15"/>
<path fill-rule="evenodd" clip-rule="evenodd" d="M270.992 239C270.992 239 259.658 237.048 258 223C258 223 271.383 228.235 270.992 239Z" fill="#FFDC15"/>
<path fill-rule="evenodd" clip-rule="evenodd" d="M269.992 255C269.992 255 258.658 253.048 257 239C257 239 270.384 244.236 269.992 255Z" fill="#FFDC15"/>
<path fill-rule="evenodd" clip-rule="evenodd" d="M266.92 271C266.92 271 255.607 268.282 255 254C255 254 268.137 260.167 266.92 271Z" fill="#FFDC15"/>
<path fill-rule="evenodd" clip-rule="evenodd" d="M261.92 286C261.92 286 250.607 283.282 250 269C250 269 263.137 275.167 261.92 286Z" fill="#FFDC15"/>
<path fill-rule="evenodd" clip-rule="evenodd" d="M230.261 362H116.739C103.629 362 93 351.967 93 339.591V86.4108C93 74.0339 103.629 64 116.739 64H230.261C243.372 64 254 74.0339 254 86.4108V339.591C254 351.967 243.372 362 230.261 362Z" fill="#0848BA"/>
<path fill-rule="evenodd" clip-rule="evenodd" d="M230.389 351H117.61C108.437 351 101 343.966 101 335.288V87.7112C101 79.034 108.437 72 117.61 72H230.389C239.563 72 247 79.034 247 87.7112V335.288C247 343.966 239.563 351 230.389 351Z" fill="white"/>
<path fill-rule="evenodd" clip-rule="evenodd" d="M218 72.543H208.495C205.58 72.543 203.215 74.7625 203.215 77.5005V81.0415C203.215 83.7795 200.851 86 197.935 86H155.549C152.632 86 150.269 83.7795 150.269 81.0415V77.5005C150.269 74.7625 147.904 72.543 144.989 72.543H118V70H218V72.543Z" fill="#0448D8"/>
<path fill-rule="evenodd" clip-rule="evenodd" d="M179.545 116.928C182.274 115.59 184.153 112.979 184.153 109.947C184.153 105.554 180.278 102 175.501 102C170.72 102 166.845 105.554 166.845 109.947C166.845 112.979 168.725 115.59 171.452 116.928C165.988 118.516 162 123.226 162 128.748V135H189V128.748C189 123.226 185.012 118.516 179.545 116.928Z" fill="#023297"/>
<path fill-rule="evenodd" clip-rule="evenodd" d="M227.995 312H121.006C119.899 312 119 311.387 119 310.632V296.369C119 295.614 119.899 295 121.006 295H227.995C229.101 295 230 295.614 230 296.369V310.632C230 311.387 229.101 312 227.995 312Z" fill="#FF5858"/>
<path fill-rule="evenodd" clip-rule="evenodd" d="M226.909 168H122.09C120.382 168 119 166.676 119 165.043V154.957C119 153.325 120.382 152 122.09 152H226.909C228.615 152 230 153.325 230 154.957V165.043C230 166.676 228.615 168 226.909 168Z" stroke="#023297" stroke-width="0.7"/>
<path fill-rule="evenodd" clip-rule="evenodd" d="M226.909 203H122.09C120.382 203 119 201.678 119 200.043V189.957C119 188.325 120.382 187 122.09 187H226.909C228.615 187 230 188.325 230 189.957V200.043C230 201.678 228.615 203 226.909 203Z" stroke="#023297" stroke-width="0.7"/>
<path fill-rule="evenodd" clip-rule="evenodd" d="M226.909 240H122.09C120.382 240 119 238.676 119 237.043V226.957C119 225.325 120.382 224 122.09 224H226.909C228.615 224 230 225.325 230 226.957V237.043C230 238.676 228.615 240 226.909 240Z" stroke="#023297" stroke-width="0.7"/>
<path fill-rule="evenodd" clip-rule="evenodd" d="M226.909 278H122.09C120.382 278 119 276.676 119 275.043V264.957C119 263.324 120.382 262 122.09 262H226.909C228.615 262 230 263.324 230 264.957V275.043C230 276.676 228.615 278 226.909 278Z" stroke="#023297" stroke-width="0.7"/>
<path fill-rule="evenodd" clip-rule="evenodd" d="M166 264.217C166 264.217 172.912 274.258 174.478 269.906C176.042 265.555 177 262.892 177 262.892C177 262.892 175.037 259.864 173.997 260.797C172.91 261.77 171.5 260 171.5 260L166 264.217Z" fill="#FFBA99"/>
<path fill-rule="evenodd" clip-rule="evenodd" d="M200.619 210L203.591 193.977C205.542 193.393 207.55 191.993 206.862 189.828C206.518 188.747 205.607 188.174 204.531 187.796C204.128 187.655 202.051 187.101 201.905 187.844C201.907 187.834 203.036 182.069 203.036 182.069L182.794 173C182.794 173 180.95 184.501 180.928 184.635C180.957 184.456 178.96 184.041 178.69 184.067C177.673 184.168 176.683 185.049 176.283 185.874C175.231 188.055 177.268 190.811 179.813 190.848C179.813 190.848 180.158 196.008 181.447 197.84C182.736 199.669 188.687 200.934 188.687 200.934L188.036 207.911L200.619 210Z" fill="#FFBA99"/>
<path fill-rule="evenodd" clip-rule="evenodd" d="M207.748 211.532C198.831 209.121 186.308 207 186.308 207L178 264L213 262.96L207.748 211.532Z" fill="#FF5858"/>
<path fill-rule="evenodd" clip-rule="evenodd" d="M207 211.964C218.802 214.869 232.344 219.467 244.481 220.647C241.779 209.095 239.47 197.608 235.938 187.795C239.311 186.992 244.255 185.802 247.627 185C247.627 185 257.693 221.57 254.302 226.448C248.53 234.749 221.466 229.159 221.466 229.159L207.868 226.882L207 211.964Z" fill="#FFBA99"/>
<path fill-rule="evenodd" clip-rule="evenodd" d="M207 212C217.856 213.572 222.58 214.544 222.58 214.544C222.935 216.447 223.217 219.193 222.771 222.448C222.329 225.672 221.329 228.245 220.481 230C216.281 228.997 212.083 227.995 207.885 226.992L207 212Z" fill="#FF5858"/>
<path fill-rule="evenodd" clip-rule="evenodd" d="M147.001 224.027C147.001 224.027 185.021 206.365 186.768 207.018C188.515 207.668 190 215.854 190 215.854C190 215.854 174.331 223.717 153.018 233.126L171.879 259.725L165.842 264C165.842 264 138.014 236.815 139.027 230.943C139.808 226.412 147.001 224.027 147.001 224.027Z" fill="#FFBA99"/>
<path fill-rule="evenodd" clip-rule="evenodd" d="M169 213.085C169 213.085 183.636 205.343 186.762 207.324C189.47 209.039 190 215.9 190 215.9C190 215.9 178.936 223.074 176.994 223.926C174.446 225.044 169 213.085 169 213.085Z" fill="#FF5858"/>
<path fill-rule="evenodd" clip-rule="evenodd" d="M248 184.236C248 184.236 246.446 173.995 246.26 173.702C246.074 173.411 246.074 171.603 243.282 172.039C243.282 172.039 243.096 168.794 241.483 168.736C239.871 168.677 238.072 169.087 238.072 169.087C238.072 169.087 236.258 160.767 235.08 159.324C233.793 157.749 231.994 161.899 234.785 172.039C234.785 172.039 236.332 178.936 235.87 179.189C234.621 179.875 232.905 179.751 230.529 175.923C228.006 171.859 224.862 173.235 226.412 176.39C227.963 179.547 230.161 183.629 231.587 184.738C233.014 185.849 236.026 185.683 236.026 185.683L236.469 187L248 184.236Z" fill="#FFBA99"/>
<path fill-rule="evenodd" clip-rule="evenodd" d="M213 262.321C210.956 287.398 210.805 308.585 207.805 324.105C206.436 331.188 187.474 323.045 187.474 323.045C187.474 323.045 191.996 302.555 193.404 292.294H186.562C183.681 299.357 179.109 315.711 177.269 322.448C176.855 323.959 175.037 324.69 173.582 323.935L155 314.297C155 314.297 172.177 266.006 177.944 259C189.63 260.107 201.314 261.214 213 262.321Z" fill="#0448D8"/>
<path fill-rule="evenodd" clip-rule="evenodd" d="M205.177 188.067C206.861 184.917 208.832 177.274 203.716 175.149C201.06 174.045 198.308 172.458 196.275 171.186C193.156 169.233 189.279 168.459 185.664 169.397C185.082 169.548 184.517 169.74 183.985 169.984C180.412 171.624 178 180.493 178 180.493L181.51 181.314C181.51 181.314 185.426 197.584 191.865 200.929L198.298 202.202L202.103 203L205.177 188.067Z" fill="#CF6940"/>
<path fill-rule="evenodd" clip-rule="evenodd" d="M200.849 174.658C200.873 173.547 200.837 172.444 200.742 171.339C200.703 170.889 200.107 170.885 200.146 171.339C200.242 172.444 200.278 173.547 200.254 174.658C200.245 175.114 200.839 175.114 200.849 174.658Z" fill="#CF6940"/>
<path fill-rule="evenodd" clip-rule="evenodd" d="M201.403 173.952C201.765 173.703 201.885 173.248 202.084 172.854C202.337 172.352 202.627 171.88 202.946 171.426C203.16 171.122 202.685 170.824 202.474 171.126C202.223 171.483 201.987 171.852 201.775 172.24C201.597 172.569 201.428 173.23 201.127 173.438C200.831 173.643 201.105 174.158 201.403 173.952Z" fill="#CF6940"/>
<path fill-rule="evenodd" clip-rule="evenodd" d="M166 264.217C166 264.217 172.912 274.258 174.478 269.906C176.042 265.555 177 262.892 177 262.892C177 262.892 175.037 259.864 173.997 260.797C172.91 261.77 171.5 260 171.5 260L166 264.217Z" fill="#FFBA99"/>
<path fill-rule="evenodd" clip-rule="evenodd" d="M200.619 210L203.591 193.977C205.542 193.393 207.55 191.993 206.862 189.828C206.518 188.747 205.607 188.174 204.531 187.796C204.128 187.655 202.051 187.101 201.905 187.844C201.907 187.834 203.036 182.069 203.036 182.069L182.794 173C182.794 173 180.95 184.501 180.928 184.635C180.957 184.456 178.96 184.041 178.69 184.067C177.673 184.168 176.683 185.049 176.283 185.874C175.231 188.055 177.268 190.811 179.813 190.848C179.813 190.848 180.158 196.008 181.447 197.84C182.736 199.669 188.687 200.934 188.687 200.934L188.036 207.911L200.619 210Z" fill="#FFBA99"/>
<path fill-rule="evenodd" clip-rule="evenodd" d="M207.748 211.532C198.831 209.121 186.308 207 186.308 207L178 264L213 262.96L207.748 211.532Z" fill="#FF5858"/>
<path fill-rule="evenodd" clip-rule="evenodd" d="M207 211.964C218.802 214.869 232.344 219.467 244.481 220.647C241.779 209.095 239.47 197.608 235.938 187.795C239.311 186.992 244.255 185.802 247.627 185C247.627 185 257.693 221.57 254.302 226.448C248.53 234.749 221.466 229.159 221.466 229.159L207.868 226.882L207 211.964Z" fill="#FFBA99"/>
<path fill-rule="evenodd" clip-rule="evenodd" d="M207 212C217.856 213.572 222.58 214.544 222.58 214.544C222.935 216.447 223.217 219.193 222.771 222.448C222.329 225.672 221.329 228.245 220.481 230C216.281 228.997 212.083 227.995 207.885 226.992L207 212Z" fill="#FF5858"/>
<path fill-rule="evenodd" clip-rule="evenodd" d="M147.001 224.027C147.001 224.027 185.021 206.365 186.768 207.018C188.515 207.668 190 215.854 190 215.854C190 215.854 174.331 223.717 153.018 233.126L171.879 259.725L165.842 264C165.842 264 138.014 236.815 139.027 230.943C139.808 226.412 147.001 224.027 147.001 224.027Z" fill="#FFBA99"/>
<path fill-rule="evenodd" clip-rule="evenodd" d="M169 213.085C169 213.085 183.636 205.343 186.762 207.324C189.47 209.039 190 215.9 190 215.9C190 215.9 178.936 223.074 176.994 223.926C174.446 225.044 169 213.085 169 213.085Z" fill="#FF5858"/>
<path fill-rule="evenodd" clip-rule="evenodd" d="M248 184.236C248 184.236 246.446 173.995 246.26 173.702C246.074 173.411 246.074 171.603 243.282 172.039C243.282 172.039 243.096 168.794 241.483 168.736C239.871 168.677 238.072 169.087 238.072 169.087C238.072 169.087 236.258 160.767 235.08 159.324C233.793 157.749 231.994 161.899 234.785 172.039C234.785 172.039 236.332 178.936 235.87 179.189C234.621 179.875 232.905 179.751 230.529 175.923C228.006 171.859 224.862 173.235 226.412 176.39C227.963 179.547 230.161 183.629 231.587 184.738C233.014 185.849 236.026 185.683 236.026 185.683L236.469 187L248 184.236Z" fill="#FFBA99"/>
<mask id="mask2_0_284" style="mask-type:luminance" maskUnits="userSpaceOnUse" x="115" y="259" width="99" height="127">
<path fill-rule="evenodd" clip-rule="evenodd" d="M115.757 259.24H213.283V385.318H115.757V259.24Z" fill="white"/>
</mask>
<g mask="url(#mask2_0_284)">
<path fill-rule="evenodd" clip-rule="evenodd" d="M213.283 262.564C209.018 323.953 199.019 379.543 199.019 379.543L213.201 385.231H183.002L193.852 292.569H187.068L145.921 385.318H115.757L132.918 379.388L178.521 259.24L213.283 262.564Z" fill="#F4C7A2"/>
</g>
<path fill-rule="evenodd" clip-rule="evenodd" d="M213 262.321C210.956 287.398 210.805 308.585 207.805 324.105C206.436 331.188 187.474 323.045 187.474 323.045C187.474 323.045 191.996 302.555 193.404 292.294H186.562C183.681 299.357 179.109 315.711 177.269 322.448C176.855 323.959 175.037 324.69 173.582 323.935L155 314.297C155 314.297 172.177 266.006 177.944 259C189.63 260.107 201.314 261.214 213 262.321Z" fill="#0448D8"/>
<path fill-rule="evenodd" clip-rule="evenodd" d="M205.177 188.067C206.861 184.917 208.832 177.274 203.716 175.149C201.06 174.045 198.308 172.458 196.275 171.186C193.156 169.233 189.279 168.459 185.664 169.397C185.082 169.548 184.517 169.74 183.985 169.984C180.412 171.624 178 180.493 178 180.493L181.51 181.314C181.51 181.314 185.426 197.584 191.865 200.929L198.298 202.202L202.103 203L205.177 188.067Z" fill="#CF6940"/>
<path fill-rule="evenodd" clip-rule="evenodd" d="M200.849 174.658C200.873 173.547 200.837 172.444 200.742 171.339C200.703 170.889 200.107 170.885 200.146 171.339C200.242 172.444 200.278 173.547 200.254 174.658C200.245 175.114 200.839 175.114 200.849 174.658Z" fill="#CF6940"/>
<path fill-rule="evenodd" clip-rule="evenodd" d="M201.403 173.952C201.765 173.703 201.885 173.248 202.084 172.854C202.337 172.352 202.627 171.88 202.946 171.426C203.16 171.122 202.685 170.824 202.474 171.126C202.223 171.483 201.987 171.852 201.775 172.24C201.597 172.569 201.428 173.23 201.127 173.438C200.831 173.643 201.105 174.158 201.403 173.952Z" fill="#CF6940"/>
</svg>
